<svg width="120" height="120" fill="none" xmlns="http://www.w3.org/2000/svg"><g clip-path="url(#knbte25m8a)"><circle cx="60" cy="60" r="60" fill="url(#84xe0z1k5b)"/><path d="M105.509 60.754C105.509 86.024 92 109.5 60 110S14 86.024 14 60.754C14 35.484 34.23 11 59.5 11s46.009 24.485 46.009 49.754z" fill="url(#4s82nh7x6c)"/><circle cx="60" cy="60" r="60" fill="url(#t0jb717jtd)"/><path fill-rule="evenodd" clip-rule="evenodd" d="M119.925 62.999c.05-.994.075-1.993.075-2.999 0-32.585-26.415-59-59-59S2 27.415 2 60c0 1.006.025 2.005.075 2.999C3.636 31.749 29.42 6 61 6s57.364 25.75 58.925 57z" fill="url(#3uwvuhhfve)"/><path opacity=".5" fill-rule="evenodd" clip-rule="evenodd" d="M119.967 62.002A60.51 60.51 0 00120 60c0-32.585-26.415-59-59-59S2 27.415 2 60c0 .67.011 1.337.033 2.002C3.09 30.462 29.085 8 61 8s57.911 22.462 58.967 54.002z" fill="url(#b3ovymn4nf)"/><circle cx="60.5" cy="63.5" r="42.5" fill="url(#okjs60yrog)"/><path opacity=".4" d="M106.605 64.458c0 26.088-19.093 47.236-46.347 47.236-27.253 0-46.347-21.148-46.347-47.236C13.911 38.37 33.005 11 60.258 11c27.254 0 46.347 27.37 46.347 53.458z" fill="url(#li7rdxqk8h)"/><path d="M106.605 64.458c0 26.088-19.093 47.236-46.347 47.236-27.253 0-46.347-21.148-46.347-47.236C13.911 38.37 33.005 11 60.258 11c27.254 0 46.347 27.37 46.347 53.458z" stroke="url(#s0kjn80eti)" stroke-width=".5" stroke-linecap="round" stroke-linejoin="round"/><path d="M106.605 64.458C106.605 90.546 87.254 110 60 110c-27.254 0-46.089-19.454-46.089-45.542S33.005 11 60.258 11c27.254 0 46.347 27.37 46.347 53.458z" stroke="url(#7bfijr9grj)" stroke-width=".5" stroke-linecap="round" stroke-linejoin="round"/><path fill-rule="evenodd" clip-rule="evenodd" d="M93.223 33.288a39.158 39.158 0 00-15.825-3.334c-23.313 0-42.213 20.553-42.213 45.906 0 10.822 3.444 20.77 9.204 28.617C28.916 97.669 18 81.174 18 61.906 18 36.553 36.9 16 60.214 16c13.362 0 25.274 6.751 33.009 17.288z" fill="#fff" style="mix-blend-mode:soft-light" opacity=".3"/><g filter="url(#7vzzhlr55k)"><path fill-rule="evenodd" clip-rule="evenodd" d="M55.451 40.826l-.002.008L51 39.642 63.051 1.308 67.5 2.5 56.835 36.425l12.17 3.26.008 4.25-.026.005-7.158 1.918 7.177 1.923.007 4.25-.025.004-7.159 1.918 7.177 1.923.007 4.25-.026.005-7.158 1.918 7.177 1.922.007 4.25-.026.005-7.158 1.918 7.177 1.923v4.21h-.003l.003.009-12.49 3.347v3.227H51.91v-6.756h.002l-.002-.01 7.157-1.918-7.151-1.916-.006-.001v-4.23l7.214-1.933-7.207-1.93-.008-.002v-4.23l7.215-1.933-7.208-1.931-.006-.002v-4.23l7.214-1.932-7.207-1.931-.008-.002v-4.23l7.215-1.933-3.673-.984z" fill="url(#z3j0xdro1l)"/></g><circle cx="60" cy="60" r="59" stroke="url(#csgs74l38m)" stroke-width="2"/><circle cx="51.5" cy="50.5" r="29.5" fill="#fff" style="mix-blend-mode:soft-light" opacity=".15"/><circle cx="43.5" cy="44.5" r="19.5" fill="#fff" style="mix-blend-mode:soft-light" opacity=".15"/><circle cx="59.5" cy="71.5" r="36.5" fill="#fff" style="mix-blend-mode:soft-light" opacity=".15"/><path d="M118 59.5L105 58 89.485 96.436 53.89 84.462" stroke="url(#hnqorjxxcn)" stroke-width="1.8" stroke-linejoin="round"/><circle cx="2.193" cy="2.193" r="2.193" transform="scale(1 -1) rotate(60.969 104.696 59.41)" fill="url(#ap872anuxo)"/><circle cx="2.917" cy="2.917" r="2.917" transform="scale(1 -1) rotate(57.29 136.711 32.935)" fill="url(#9x2rn4jzxp)"/><g style="mix-blend-mode:lighten" filter="url(#gsz6t6d1mq)"><circle cx="8" cy="8" r="8" transform="matrix(0 -1 -1 0 63.106 92.813)" fill="#C42E6C" fill-opacity=".68"/></g><g style="mix-blend-mode:lighten" filter="url(#44e95ddwjr)"><circle cx="4" cy="4" r="4" transform="matrix(0 -1 -1 0 59.106 88.813)" fill="#C42E6C"/></g><circle cx="2.542" cy="2.542" r="2.542" transform="matrix(0 -1 -1 0 57.648 87.356)" fill="url(#1nyx4vu6ks)"/></g><defs><linearGradient id="t0jb717jtd" x1="43.5" y1="-3.5" x2="48" y2="69.5" gradientUnits="userSpaceOnUse"><stop stop-color="#B9437C"/><stop offset="1" stop-color="#1A2536" stop-opacity=".01"/></linearGradient><linearGradient id="li7rdxqk8h" x1="116" y1="147.883" x2="116.058" y2="17.335" gradientUnits="userSpaceOnUse"><stop stop-color="#83234B" stop-opacity=".01"/><stop offset="1" stop-color="#C42E6C"/></linearGradient><linearGradient id="s0kjn80eti" x1="58" y1="52" x2="23.828" y2="10.692" gradientUnits="userSpaceOnUse"><stop stop-color="#F44880" stop-opacity=".01"/><stop offset="1" stop-color="#FF85AD"/></linearGradient><linearGradient id="7bfijr9grj" x1="58" y1="52" x2="94.943" y2="98.928" gradientUnits="userSpaceOnUse"><stop stop-color="#F44880" stop-opacity=".01"/><stop offset="1" stop-color="#FF85AD" stop-opacity=".24"/></linearGradient><linearGradient id="z3j0xdro1l" x1="59.524" y1="76.365" x2="59.524" y2="18.158" gradientUnits="userSpaceOnUse"><stop stop-color="#fff"/><stop offset="1" stop-color="#F9B5D1"/></linearGradient><linearGradient id="csgs74l38m" x1="-25.227" y1="22.708" x2="4.038" y2="134.632" gradientUnits="userSpaceOnUse"><stop stop-color="#FF5E92"/><stop offset="1" stop-color="#ED4653"/></linearGradient><linearGradient id="hnqorjxxcn" x1="119.5" y1="59" x2="102.668" y2="76.492" gradientUnits="userSpaceOnUse"><stop stop-color="#F4487D" stop-opacity=".16"/><stop offset="1" stop-color="#FC3A78"/></linearGradient><linearGradient id="ap872anuxo" x1="7.02" y1="-2.254" x2="-5.344" y2="-9.761" gradientUnits="userSpaceOnUse"><stop stop-color="#DD1E5B"/><stop offset="1" stop-color="#EFC7D8"/></linearGradient><linearGradient id="9x2rn4jzxp" x1="9.338" y1="-2.998" x2="-7.108" y2="-12.984" gradientUnits="userSpaceOnUse"><stop stop-color="#DD1E5B"/><stop offset="1" stop-color="#EFC7D8"/></linearGradient><linearGradient id="1nyx4vu6ks" x1="1.835" y1="-2.056" x2="-2.278" y2="2.499" gradientUnits="userSpaceOnUse"><stop stop-color="#FB3B78"/><stop offset="1" stop-color="#EFC7D8"/></linearGradient><radialGradient id="84xe0z1k5b" cx="0" cy="0" r="1" gradientUnits="userSpaceOnUse" gradientTransform="matrix(0 68.5 -68.5 0 60 -14.5)"><stop stop-color="#263A5E"/><stop offset="1" stop-color="#0C1321"/></radialGradient><radialGradient id="4s82nh7x6c" cx="0" cy="0" r="1" gradientUnits="userSpaceOnUse" gradientTransform="rotate(90 14.942 44.812) scale(72.063)"><stop stop-color="#3B6099"/><stop offset="1" stop-color="#101A2A"/></radialGradient><radialGradient id="3uwvuhhfve" cx="0" cy="0" r="1" gradientUnits="userSpaceOnUse" gradientTransform="rotate(91.116 51.34 8.662) scale(77.0129 139.275)"><stop stop-color="#6BA0E2"/><stop offset=".305" stop-color="#54729A"/><stop offset=".526" stop-color="#385076"/><stop offset="1" stop-color="#131E32"/></radialGradient><radialGradient id="b3ovymn4nf" cx="0" cy="0" r="1" gradientUnits="userSpaceOnUse" gradientTransform="matrix(0 -17.0012 237.288 0 56.5 8)"><stop stop-color="#D12A6F"/><stop offset="1" stop-color="#83234B" stop-opacity=".01"/></radialGradient><radialGradient id="okjs60yrog" cx="0" cy="0" r="1" gradientUnits="userSpaceOnUse" gradientTransform="rotate(90 0 60.5) scale(45.5)"><stop stop-color="#FAB6D2"/><stop offset="1" stop-color="#431F3B" stop-opacity="0"/></radialGradient><filter id="7vzzhlr55k" x="41.912" y="-7.78" width="36.189" height="99.728" filterUnits="userSpaceOnUse" color-interpolation-filters="sRGB"><feFlood flood-opacity="0" result="BackgroundImageFix"/><feColorMatrix in="SourceAlpha" values="0 0 0 0 0 0 0 0 0 0 0 0 0 0 0 0 0 0 127 0" result="hardAlpha"/><feOffset/><feGaussianBlur stdDeviation="4.544"/><feColorMatrix values="0 0 0 0 0.951002 0 0 0 0 0.370525 0 0 0 0 0.610455 0 0 0 1 0"/><feBlend in2="BackgroundImageFix" result="effect1_dropShadow_1698_32692"/><feBlend in="SourceGraphic" in2="effect1_dropShadow_1698_32692" result="shape"/></filter><filter id="gsz6t6d1mq" x="39.554" y="69.261" width="31.104" height="31.104" filterUnits="userSpaceOnUse" color-interpolation-filters="sRGB"><feFlood flood-opacity="0" result="BackgroundImageFix"/><feBlend in="SourceGraphic" in2="BackgroundImageFix" result="shape"/><feGaussianBlur stdDeviation="3.776" result="effect1_foregroundBlur_1698_32692"/></filter><filter id="44e95ddwjr" x="43.554" y="73.261" width="23.104" height="23.104" filterUnits="userSpaceOnUse" color-interpolation-filters="sRGB"><feFlood flood-opacity="0" result="BackgroundImageFix"/><feBlend in="SourceGraphic" in2="BackgroundImageFix" result="shape"/><feGaussianBlur stdDeviation="3.776" result="effect1_foregroundBlur_1698_32692"/></filter><clipPath id="knbte25m8a"><path fill="#fff" d="M0 0h120v120H0z"/></clipPath></defs></svg>