<svg width="120" height="120" fill="none" xmlns="http://www.w3.org/2000/svg"><path d="M44 9h32a6 6 0 01-6 6H50a6 6 0 01-6-6z" fill="#121E31"/><path d="M47 9a4 4 0 014-4h18a4 4 0 014 4H47z" fill="url(#58b1zzokta)"/><path d="M49.91 5.9a1 1 0 01.995-.9h18.19a1 1 0 01.995.9L71 15H49l.91-9.1z" fill="url(#u05th8ovwb)"/><circle cx="60" cy="60" r="60" fill="#151F32"/><circle cx="60" cy="60" r="59" stroke="url(#7f8b67mauc)" stroke-width="2"/><ellipse opacity=".593" cx="59.5" cy="108.5" rx="48.5" ry="8.5" fill="url(#9l4y85wsfd)"/><path d="M35.352 105.058C36.417 118.777 12.42 107.532 20 99m63.957 6.058c-1.065 13.719 22.932 2.474 15.352-6.058" stroke="#253857" stroke-width="3.2"/><rect x="8" y="9" width="104" height="99" rx="25" fill="#1B283E"/><rect opacity=".3" x="8" y="9" width="104" height="99" rx="31" fill="url(#goor1osz8e)"/><path d="M8 34C8 20.193 19.193 9 33 9h5c13.807 0 25 11.193 25 25v49c0 13.807-11.193 25-25 25h-5C19.193 108 8 96.807 8 83V34z" fill="url(#bxyt6aogwf)"/><path d="M112 34c0-13.807-11.193-25-25-25h-5C68.193 9 57 20.193 57 34v49c0 13.807 11.193 25 25 25h5c13.807 0 25-11.193 25-25V34z" fill="url(#gi9a5sdsng)"/><rect x="8" y="9" width="104" height="85" rx="19" fill="url(#8fhewv9wah)"/><rect opacity=".3" x="8" y="9" width="104" height="85" rx="18" fill="url(#9gk2m32lvi)"/><path opacity=".3" d="M10.5 85.5l14-2 7 5-14 5.5-7-8.5z" fill="url(#qfaka9oqqj)"/><rect x="15" y="25" width="90" height="8.042" rx="4.021" fill="#141E31"/><g filter="url(#vrtcd7ejdk)"><path d="M18 29a2 2 0 012-2h13.21v4H20a2 2 0 01-2-2z" fill="#FEC63B"/></g><g filter="url(#v3c82qd8jl)"><path d="M35.895 27h15.21v4h-15.21v-4z" fill="#FEC63B"/></g><g filter="url(#20x9184fkm)"><path d="M53.79 27H69v4H53.79v-4z" fill="#FEC63B"/></g><rect x="15" y="38.042" width="90" height="8.042" rx="4.021" fill="#141E31"/><g filter="url(#oy6tzi2vpn)"><path d="M103 42.063a2.063 2.063 0 01-2.063 2.063H87.193V40h13.744c1.139 0 2.063.923 2.063 2.063z" fill="#FEC63B"/></g><g filter="url(#z9kem6vi3o)"><path d="M84.403 44.126H68.597V40h15.806v4.126z" fill="#FEC63B"/></g><g filter="url(#yovyvs5mpp)"><path d="M65.807 44.126H50V40h15.807v4.126z" fill="#FEC63B"/></g><rect x="15" y="51.084" width="90" height="8.042" rx="4.021" fill="#141E31"/><g filter="url(#vqxeu3p7oq)"><path d="M88 57.21H71V53h17v4.21z" fill="#FEC63B"/></g><g filter="url(#f21wfird5r)"><path d="M68 57.21H51V53h17v4.21z" fill="#FEC63B"/></g><g filter="url(#xixw3kmwos)"><path d="M48 57.21H31V53h17v4.21z" fill="#FEC63B"/></g><rect x="15" y="64.126" width="90" height="8.042" rx="4.021" fill="#141E31"/><g filter="url(#g6tbibjn4t)"><path d="M102 68.146a2.146 2.146 0 01-2.146 2.147h-13.72V66h13.72c1.185 0 2.146.961 2.146 2.146z" fill="#FEC63B"/></g><g filter="url(#two89el3nu)"><path d="M67.467 70.293H51.6V66h15.867v4.293z" fill="#FEC63B"/></g><g filter="url(#5ir583se2v)"><path d="M18 68.146c0-1.185.961-2.146 2.146-2.146h13.72v4.293h-13.72A2.146 2.146 0 0118 68.146z" fill="#FEC63B"/></g><circle cx="95.375" cy="88.375" r="1.625" fill="#141E31"/><g filter="url(#8duv6u9u8w)"><circle cx="90.5" cy="88.375" r="1.625" fill="#FEC63B"/></g><circle cx="85.625" cy="88.375" r="1.625" fill="#141E31"/><rect x="27" y="98" width="26" height="1.5" rx=".75" fill="#0F1825"/><rect x="27" y="100.25" width="26" height="1.5" rx=".75" fill="#0F1825"/><rect x="27" y="102.5" width="26" height="1.5" rx=".75" fill="#0F1825"/><rect x="67" y="98" width="26" height="1.5" rx=".75" fill="#0F1825"/><rect x="67" y="100.25" width="26" height="1.5" rx=".75" fill="#0F1825"/><rect x="67" y="102.5" width="26" height="1.5" rx=".75" fill="#0F1825"/><path d="M2.614 47.27A4 4 0 015.538 46H8v23H5.538a4 4 0 01-2.924-1.27l-.538-.577A4 4 0 011 64.423V50.577a4 4 0 011.076-2.73l.538-.576z" fill="url(#863wxr2tzx)"/><rect x="9" y="48" width="3" height="19" rx="1.5" fill="#141E31"/><path d="M1 50a1 1 0 011-1h9v17H2a1 1 0 01-1-1V50z" fill="url(#p7f6jkgd2y)"/><path d="M117.386 67.73a3.998 3.998 0 01-2.924 1.27H112V46h2.462a4 4 0 012.924 1.27l.538.577a3.997 3.997 0 011.076 2.73v13.846a3.997 3.997 0 01-1.076 2.73l-.538.576z" fill="url(#bqjufbqtpz)"/><rect x="111" y="67" width="3" height="19" rx="1.5" transform="rotate(-180 111 67)" fill="#141E31"/><path d="M119 64a2 2 0 01-2 2h-8V49h8a2 2 0 012 2v13z" fill="url(#yzkwzfw8uA)"/><path opacity=".5" d="M115 66V49.33l-6-.33v17h6z" fill="url(#wv3otqmeoB)"/><path opacity=".5" d="M5 49v16.67l6 .33V49H5z" fill="url(#0igweu0jeC)"/><circle cx="60" cy="101" r="4" fill="#0F1825"/><g filter="url(#ejg61u0o3D)"><circle cx="60" cy="101" r="2" fill="#FEC63B"/></g><path d="M60 108v8l48.5-27.5-8-22" stroke="url(#tl7yt1s6xE)" stroke-width="2"/><circle cx="100.976" cy="67.529" r="2.5" transform="rotate(-75 100.976 67.529)" fill="#FFDE91"/><g opacity=".2" filter="url(#3903r3zkdF)"><circle cx="101" cy="67" r="10" fill="#FFD26C"/></g><circle cx="108.5" cy="88.5" r="3.5" fill="url(#u6vpqncaqG)"/><circle cx="60.4" cy="116.4" r="2.4" fill="url(#4kon3lh76H)"/><ellipse cx="30" cy="85" rx="7" ry="5" fill="#1B283E"/><rect x="25" y="79" width="10" height="9" rx="4" fill="url(#vfxelqfk0I)"/><path d="M38 81c0 3.314-3.582 6-8 6s-8-2.686-8-6 3.582-6 8-6 8 2.686 8 6z" fill="url(#t479to8dyJ)"/><ellipse cx="30" cy="79.5" rx="6" ry="4.5" fill="url(#ytbc6psimK)"/><ellipse cx="30" cy="79" rx="6" ry="4" fill="url(#lsn42697yL)"/><ellipse opacity=".3" cx="30" cy="79" rx="6" ry="4" fill="url(#kvazeciweM)"/><defs><linearGradient id="58b1zzokta" x1="59.35" y1="5" x2="59.35" y2="9" gradientUnits="userSpaceOnUse"><stop stop-color="#5B79A2"/><stop offset="1" stop-color="#2E4469"/></linearGradient><linearGradient id="u05th8ovwb" x1="59.5" y1="5" x2="59.5" y2="15" gradientUnits="userSpaceOnUse"><stop stop-color="#5B79A2"/><stop offset="1" stop-color="#2E4469"/></linearGradient><linearGradient id="7f8b67mauc" x1="-25.227" y1="22.708" x2="4.038" y2="134.632" gradientUnits="userSpaceOnUse"><stop stop-color="#FFC63B"/><stop offset="1" stop-color="#F29D1C"/></linearGradient><linearGradient id="bxyt6aogwf" x1="6" y1="85.5" x2="32" y2="105" gradientUnits="userSpaceOnUse"><stop stop-color="#55719A"/><stop offset="1" stop-color="#1B283E" stop-opacity="0"/></linearGradient><linearGradient id="gi9a5sdsng" x1="114" y1="85.5" x2="88" y2="105" gradientUnits="userSpaceOnUse"><stop stop-color="#1D3252"/><stop offset="1" stop-color="#1B283E" stop-opacity="0"/></linearGradient><linearGradient id="8fhewv9wah" x1="24" y1=".5" x2="95" y2="87" gradientUnits="userSpaceOnUse"><stop stop-color="#6F94C7"/><stop offset="1" stop-color="#11213A"/></linearGradient><linearGradient id="qfaka9oqqj" x1="27.5" y1="85.5" x2="17.5" y2="91" gradientUnits="userSpaceOnUse"><stop stop-color="#0F1825"/><stop offset="1" stop-color="#0F1825" stop-opacity="0"/></linearGradient><linearGradient id="863wxr2tzx" x1="-4.6" y1="59" x2="10.1" y2="59" gradientUnits="userSpaceOnUse"><stop stop-color="#5B79A2"/><stop offset="1" stop-color="#152033"/></linearGradient><linearGradient id="p7f6jkgd2y" x1="1" y1="58.5" x2="11" y2="58.5" gradientUnits="userSpaceOnUse"><stop stop-color="#5B79A2"/><stop offset="1" stop-color="#2E4469"/></linearGradient><linearGradient id="bqjufbqtpz" x1="124.6" y1="56" x2="109.9" y2="56" gradientUnits="userSpaceOnUse"><stop stop-color="#5B79A2"/><stop offset="1" stop-color="#152033"/></linearGradient><linearGradient id="yzkwzfw8uA" x1="137.75" y1="55" x2="109.068" y2="57.338" gradientUnits="userSpaceOnUse"><stop stop-color="#5B79A2"/><stop offset="1" stop-color="#2E4469"/></linearGradient><linearGradient id="wv3otqmeoB" x1="107.421" y1="57.417" x2="114.089" y2="57.489" gradientUnits="userSpaceOnUse"><stop stop-color="#0F1825"/><stop offset="1" stop-color="#0F1825" stop-opacity="0"/></linearGradient><linearGradient id="0igweu0jeC" x1="12.579" y1="57.583" x2="5.911" y2="57.511" gradientUnits="userSpaceOnUse"><stop stop-color="#0F1825"/><stop offset="1" stop-color="#0F1825" stop-opacity="0"/></linearGradient><linearGradient id="tl7yt1s6xE" x1="52" y1="113" x2="77.721" y2="120.023" gradientUnits="userSpaceOnUse"><stop stop-color="#FFE474" stop-opacity=".01"/><stop offset="1" stop-color="#FFC540"/></linearGradient><linearGradient id="u6vpqncaqG" x1="104.99" y1="85.666" x2="107.837" y2="89.923" gradientUnits="userSpaceOnUse"><stop stop-color="#FDE47C"/><stop offset="1" stop-color="#FAC446"/></linearGradient><linearGradient id="4kon3lh76H" x1="57.993" y1="114.457" x2="59.945" y2="117.376" gradientUnits="userSpaceOnUse"><stop stop-color="#FDE47C"/><stop offset="1" stop-color="#FAC446"/></linearGradient><linearGradient id="vfxelqfk0I" x1="28.5" y1="80.5" x2="29.283" y2="88.927" gradientUnits="userSpaceOnUse"><stop stop-color="#5B79A2"/><stop offset="1" stop-color="#1B283E"/></linearGradient><linearGradient id="t479to8dyJ" x1="23.5" y1="67" x2="30.916" y2="86.114" gradientUnits="userSpaceOnUse"><stop stop-color="#5B79A2"/><stop offset="1" stop-color="#19273F"/></linearGradient><linearGradient id="ytbc6psimK" x1="24.981" y1="75.688" x2="35.024" y2="83.985" gradientUnits="userSpaceOnUse"><stop stop-color="#5B79A2"/><stop offset="1" stop-color="#2E4469"/></linearGradient><linearGradient id="lsn42697yL" x1="24.981" y1="75.612" x2="34.047" y2="84.038" gradientUnits="userSpaceOnUse"><stop stop-color="#7093C4"/><stop offset="1" stop-color="#3A5C94"/></linearGradient><filter id="vrtcd7ejdk" x="14" y="23" width="23.21" height="12" filterUnits="userSpaceOnUse" color-interpolation-filters="sRGB"><feFlood flood-opacity="0" result="BackgroundImageFix"/><feColorMatrix in="SourceAlpha" values="0 0 0 0 0 0 0 0 0 0 0 0 0 0 0 0 0 0 127 0" result="hardAlpha"/><feOffset/><feGaussianBlur stdDeviation="2"/><feColorMatrix values="0 0 0 0 0.964706 0 0 0 0 0.670588 0 0 0 0 0.14902 0 0 0 1 0"/><feBlend in2="BackgroundImageFix" result="effect1_dropShadow_1168_26876"/><feBlend in="SourceGraphic" in2="effect1_dropShadow_1168_26876" result="shape"/></filter><filter id="v3c82qd8jl" x="31.895" y="23" width="23.21" height="12" filterUnits="userSpaceOnUse" color-interpolation-filters="sRGB"><feFlood flood-opacity="0" result="BackgroundImageFix"/><feColorMatrix in="SourceAlpha" values="0 0 0 0 0 0 0 0 0 0 0 0 0 0 0 0 0 0 127 0" result="hardAlpha"/><feOffset/><feGaussianBlur stdDeviation="2"/><feColorMatrix values="0 0 0 0 0.964706 0 0 0 0 0.670588 0 0 0 0 0.14902 0 0 0 1 0"/><feBlend in2="BackgroundImageFix" result="effect1_dropShadow_1168_26876"/><feBlend in="SourceGraphic" in2="effect1_dropShadow_1168_26876" result="shape"/></filter><filter id="20x9184fkm" x="49.789" y="23" width="23.21" height="12" filterUnits="userSpaceOnUse" color-interpolation-filters="sRGB"><feFlood flood-opacity="0" result="BackgroundImageFix"/><feColorMatrix in="SourceAlpha" values="0 0 0 0 0 0 0 0 0 0 0 0 0 0 0 0 0 0 127 0" result="hardAlpha"/><feOffset/><feGaussianBlur stdDeviation="2"/><feColorMatrix values="0 0 0 0 0.964706 0 0 0 0 0.670588 0 0 0 0 0.14902 0 0 0 1 0"/><feBlend in2="BackgroundImageFix" result="effect1_dropShadow_1168_26876"/><feBlend in="SourceGraphic" in2="effect1_dropShadow_1168_26876" result="shape"/></filter><filter id="oy6tzi2vpn" x="83.193" y="36" width="23.807" height="12.126" filterUnits="userSpaceOnUse" color-interpolation-filters="sRGB"><feFlood flood-opacity="0" result="BackgroundImageFix"/><feColorMatrix in="SourceAlpha" values="0 0 0 0 0 0 0 0 0 0 0 0 0 0 0 0 0 0 127 0" result="hardAlpha"/><feOffset/><feGaussianBlur stdDeviation="2"/><feColorMatrix values="0 0 0 0 0.964706 0 0 0 0 0.670588 0 0 0 0 0.14902 0 0 0 1 0"/><feBlend in2="BackgroundImageFix" result="effect1_dropShadow_1168_26876"/><feBlend in="SourceGraphic" in2="effect1_dropShadow_1168_26876" result="shape"/></filter><filter id="z9kem6vi3o" x="64.597" y="36" width="23.807" height="12.126" filterUnits="userSpaceOnUse" color-interpolation-filters="sRGB"><feFlood flood-opacity="0" result="BackgroundImageFix"/><feColorMatrix in="SourceAlpha" values="0 0 0 0 0 0 0 0 0 0 0 0 0 0 0 0 0 0 127 0" result="hardAlpha"/><feOffset/><feGaussianBlur stdDeviation="2"/><feColorMatrix values="0 0 0 0 0.964706 0 0 0 0 0.670588 0 0 0 0 0.14902 0 0 0 1 0"/><feBlend in2="BackgroundImageFix" result="effect1_dropShadow_1168_26876"/><feBlend in="SourceGraphic" in2="effect1_dropShadow_1168_26876" result="shape"/></filter><filter id="yovyvs5mpp" x="46" y="36" width="23.807" height="12.126" filterUnits="userSpaceOnUse" color-interpolation-filters="sRGB"><feFlood flood-opacity="0" result="BackgroundImageFix"/><feColorMatrix in="SourceAlpha" values="0 0 0 0 0 0 0 0 0 0 0 0 0 0 0 0 0 0 127 0" result="hardAlpha"/><feOffset/><feGaussianBlur stdDeviation="2"/><feColorMatrix values="0 0 0 0 0.964706 0 0 0 0 0.670588 0 0 0 0 0.14902 0 0 0 1 0"/><feBlend in2="BackgroundImageFix" result="effect1_dropShadow_1168_26876"/><feBlend in="SourceGraphic" in2="effect1_dropShadow_1168_26876" result="shape"/></filter><filter id="vqxeu3p7oq" x="67" y="49" width="25" height="12.209" filterUnits="userSpaceOnUse" color-interpolation-filters="sRGB"><feFlood flood-opacity="0" result="BackgroundImageFix"/><feColorMatrix in="SourceAlpha" values="0 0 0 0 0 0 0 0 0 0 0 0 0 0 0 0 0 0 127 0" result="hardAlpha"/><feOffset/><feGaussianBlur stdDeviation="2"/><feColorMatrix values="0 0 0 0 0.964706 0 0 0 0 0.670588 0 0 0 0 0.14902 0 0 0 1 0"/><feBlend in2="BackgroundImageFix" result="effect1_dropShadow_1168_26876"/><feBlend in="SourceGraphic" in2="effect1_dropShadow_1168_26876" result="shape"/></filter><filter id="f21wfird5r" x="47" y="49" width="25" height="12.209" filterUnits="userSpaceOnUse" color-interpolation-filters="sRGB"><feFlood flood-opacity="0" result="BackgroundImageFix"/><feColorMatrix in="SourceAlpha" values="0 0 0 0 0 0 0 0 0 0 0 0 0 0 0 0 0 0 127 0" result="hardAlpha"/><feOffset/><feGaussianBlur stdDeviation="2"/><feColorMatrix values="0 0 0 0 0.964706 0 0 0 0 0.670588 0 0 0 0 0.14902 0 0 0 1 0"/><feBlend in2="BackgroundImageFix" result="effect1_dropShadow_1168_26876"/><feBlend in="SourceGraphic" in2="effect1_dropShadow_1168_26876" result="shape"/></filter><filter id="xixw3kmwos" x="27" y="49" width="25" height="12.209" filterUnits="userSpaceOnUse" color-interpolation-filters="sRGB"><feFlood flood-opacity="0" result="BackgroundImageFix"/><feColorMatrix in="SourceAlpha" values="0 0 0 0 0 0 0 0 0 0 0 0 0 0 0 0 0 0 127 0" result="hardAlpha"/><feOffset/><feGaussianBlur stdDeviation="2"/><feColorMatrix values="0 0 0 0 0.964706 0 0 0 0 0.670588 0 0 0 0 0.14902 0 0 0 1 0"/><feBlend in2="BackgroundImageFix" result="effect1_dropShadow_1168_26876"/><feBlend in="SourceGraphic" in2="effect1_dropShadow_1168_26876" result="shape"/></filter><filter id="g6tbibjn4t" x="82.133" y="62" width="23.867" height="12.293" filterUnits="userSpaceOnUse" color-interpolation-filters="sRGB"><feFlood flood-opacity="0" result="BackgroundImageFix"/><feColorMatrix in="SourceAlpha" values="0 0 0 0 0 0 0 0 0 0 0 0 0 0 0 0 0 0 127 0" result="hardAlpha"/><feOffset/><feGaussianBlur stdDeviation="2"/><feColorMatrix values="0 0 0 0 0.964706 0 0 0 0 0.670588 0 0 0 0 0.14902 0 0 0 1 0"/><feBlend in2="BackgroundImageFix" result="effect1_dropShadow_1168_26876"/><feBlend in="SourceGraphic" in2="effect1_dropShadow_1168_26876" result="shape"/></filter><filter id="two89el3nu" x="47.6" y="62" width="23.867" height="12.293" filterUnits="userSpaceOnUse" color-interpolation-filters="sRGB"><feFlood flood-opacity="0" result="BackgroundImageFix"/><feColorMatrix in="SourceAlpha" values="0 0 0 0 0 0 0 0 0 0 0 0 0 0 0 0 0 0 127 0" result="hardAlpha"/><feOffset/><feGaussianBlur stdDeviation="2"/><feColorMatrix values="0 0 0 0 0.964706 0 0 0 0 0.670588 0 0 0 0 0.14902 0 0 0 1 0"/><feBlend in2="BackgroundImageFix" result="effect1_dropShadow_1168_26876"/><feBlend in="SourceGraphic" in2="effect1_dropShadow_1168_26876" result="shape"/></filter><filter id="5ir583se2v" x="14" y="62" width="23.867" height="12.293" filterUnits="userSpaceOnUse" color-interpolation-filters="sRGB"><feFlood flood-opacity="0" result="BackgroundImageFix"/><feColorMatrix in="SourceAlpha" values="0 0 0 0 0 0 0 0 0 0 0 0 0 0 0 0 0 0 127 0" result="hardAlpha"/><feOffset/><feGaussianBlur stdDeviation="2"/><feColorMatrix values="0 0 0 0 0.964706 0 0 0 0 0.670588 0 0 0 0 0.14902 0 0 0 1 0"/><feBlend in2="BackgroundImageFix" result="effect1_dropShadow_1168_26876"/><feBlend in="SourceGraphic" in2="effect1_dropShadow_1168_26876" result="shape"/></filter><filter id="8duv6u9u8w" x="84.875" y="82.75" width="11.25" height="11.25" filterUnits="userSpaceOnUse" color-interpolation-filters="sRGB"><feFlood flood-opacity="0" result="BackgroundImageFix"/><feColorMatrix in="SourceAlpha" values="0 0 0 0 0 0 0 0 0 0 0 0 0 0 0 0 0 0 127 0" result="hardAlpha"/><feOffset/><feGaussianBlur stdDeviation="2"/><feColorMatrix values="0 0 0 0 0.964706 0 0 0 0 0.670588 0 0 0 0 0.14902 0 0 0 1 0"/><feBlend in2="BackgroundImageFix" result="effect1_dropShadow_1168_26876"/><feBlend in="SourceGraphic" in2="effect1_dropShadow_1168_26876" result="shape"/></filter><filter id="ejg61u0o3D" x="54" y="95" width="12" height="12" filterUnits="userSpaceOnUse" color-interpolation-filters="sRGB"><feFlood flood-opacity="0" result="BackgroundImageFix"/><feColorMatrix in="SourceAlpha" values="0 0 0 0 0 0 0 0 0 0 0 0 0 0 0 0 0 0 127 0" result="hardAlpha"/><feOffset/><feGaussianBlur stdDeviation="2"/><feColorMatrix values="0 0 0 0 0.964706 0 0 0 0 0.670588 0 0 0 0 0.14902 0 0 0 1 0"/><feBlend in2="BackgroundImageFix" result="effect1_dropShadow_1168_26876"/><feBlend in="SourceGraphic" in2="effect1_dropShadow_1168_26876" result="shape"/></filter><filter id="3903r3zkdF" x="85.12" y="51.12" width="31.76" height="31.76" filterUnits="userSpaceOnUse" color-interpolation-filters="sRGB"><feFlood flood-opacity="0" result="BackgroundImageFix"/><feBlend in="SourceGraphic" in2="BackgroundImageFix" result="shape"/><feGaussianBlur stdDeviation="2.94" result="effect1_foregroundBlur_1168_26876"/></filter><radialGradient id="9l4y85wsfd" cx="0" cy="0" r="1" gradientUnits="userSpaceOnUse" gradientTransform="matrix(48.5 0 0 8.5 59.5 108.5)"><stop/><stop offset="1" stop-opacity=".01"/></radialGradient><radialGradient id="goor1osz8e" cx="0" cy="0" r="1" gradientUnits="userSpaceOnUse" gradientTransform="rotate(111.14 -9.875 78.545) scale(34.3551 38.5027)"><stop stop-color="#FAC446"/><stop offset="1" stop-color="#233452" stop-opacity="0"/></radialGradient><radialGradient id="9gk2m32lvi" cx="0" cy="0" r="1" gradientUnits="userSpaceOnUse" gradientTransform="matrix(-59.5002 82.0003 -97.33312 -70.62585 98.5 68.5)"><stop stop-color="#FAC446"/><stop offset="1" stop-color="#233452" stop-opacity="0"/></radialGradient><radialGradient id="kvazeciweM" cx="0" cy="0" r="1" gradientUnits="userSpaceOnUse" gradientTransform="matrix(-1 14.49996 -17.98099 -1.24007 30 75.5)"><stop stop-color="#FAC446"/><stop offset="1" stop-color="#233452" stop-opacity="0"/></radialGradient></defs></svg>