<svg width="120" height="120" fill="none" xmlns="http://www.w3.org/2000/svg"><mask id="a" style="mask-type:alpha" maskUnits="userSpaceOnUse" x="1" y="0" width="118" height="118"><circle cx="60" cy="59" r="59" fill="#D9D9D9"/></mask><g mask="url(#a)"><path fill="url(#xxncqmqhsb)" d="M1 0h118v118H1z"/><g opacity=".05" fill="#699CDC"><path opacity=".85" d="M110.95 34.637H9V22.645h101.95z"/><path d="M110.95 20.992H9V9h101.95z"/><path opacity=".3" d="M110.95 76.23V64.153L59.753 75.714 9 64.152V76.23L59.753 88l51.197-11.77z"/><path opacity=".6" d="M110.95 62.063v-12.08l-51.197 7.429L9 49.984v12.079l50.753 7.634 51.197-7.634z"/><path opacity=".7" d="M110.95 48.37V36.29l-51.197 3.294L9 36.29v12.08l50.753 3.5 51.197-3.5z"/></g><g opacity=".1" fill="#699CDC"><path opacity=".85" d="M94.95 32.995H25V15.691h69.95z"/><path d="M94.95 13.304H25V-4h69.95z"/><path opacity=".3" d="M94.95 93.016v-17.43L59.822 92.272 25 75.585v17.43L59.822 110 94.95 93.016z"/><path opacity=".6" d="M94.95 72.572v-17.43L59.822 65.86 25 55.141v17.43l34.822 11.017L94.95 72.572z"/><path opacity=".7" d="M94.95 52.812v-17.43l-35.128 4.752L25 35.381v17.43l34.822 5.05 35.128-5.05z"/></g><g opacity=".2" fill="#699CDC"><path opacity=".85" d="M87.95 48.426h-55.9V32.792h55.9z"/><path opacity=".7" d="M87.899 30.635h-55.9V15h55.9z"/><path opacity=".3" d="M87.95 102.655V86.907l-28.072 15.075-27.827-15.075v15.748L59.878 118l28.072-15.345z"/><path opacity=".6" d="M87.95 84.183V68.435l-28.072 9.684-27.827-9.684v15.748l27.827 9.954 28.072-9.954z"/><path opacity=".7" d="M87.95 66.33V50.582l-28.072 4.293-27.827-4.293V66.33l27.827 4.563L87.95 66.33z"/></g><path fill="#5E8BC6" d="M81 45.922H39V31.458h42z"/><path d="M81 96.09V81.523L59.908 95.468 39 81.522V96.09l20.908 14.195L81 96.091z" fill="#304769"/><path d="M81 96.09V81.523L59.908 95.468 39 81.522V96.09l20.908 14.195L81 96.091z" fill="#304769"/><path d="M81 115.569V101l-21.092 13.947L39 101v14.569l20.908 2.931L81 115.569z" fill="#1D2B42"/><path d="M81 79.002V64.433l-21.092 8.96L39 64.432v14.57l20.908 9.207L81 79.002z" fill="#4B70A0"/><path d="M81 62.486V47.917L59.908 51.89 39 47.917v14.57l20.908 4.22L81 62.487z" fill="#547DB2"/><g opacity=".5"><path fill="#131D30" fill-opacity=".32" d="M48.236 36h5.561v1h-5.561z"/><path fill="#fff" d="M56.886 36h1.854v1h-1.854zm14.212 0h1.854v1h-1.854z"/><g filter="url(#3c444s9f1c)"><path fill="#fff" d="M41.439 36H47v1h-5.561zm18.537 0h1.854v1h-1.854z"/><path fill="#131D30" fill-opacity=".32" d="M76.659 36h1.854v1h-1.854z"/><path fill="#fff" d="M54.415 36h1.854v1h-1.854z"/><path fill="#131D30" fill-opacity=".32" d="M74.187 36h1.854v1h-1.854zm-11.74 0h8.033v1h-8.033z"/></g><path fill="#131D30" fill-opacity=".32" d="M56.886 40h1.854v1h-1.854zm10.505 0h3.089v1h-3.089zm-25.952 0H47v1h-5.561zm32.131 0h2.472v1H73.57z"/><path fill="#fff" d="M71.098 40h1.854v1h-1.854zm-11.122 0h1.854v1h-1.854z"/><path fill="#131D30" fill-opacity=".32" d="M76.659 40h1.854v1h-1.854zm-28.423 0h8.033v1h-8.033zm14.212 0h4.325v1h-4.325z"/></g><g opacity=".2"><path fill="#AECFFF" d="M48.236 55h5.561v1h-5.561z"/><path fill="#131D30" fill-opacity=".32" d="M56.886 55h1.854v1h-1.854zm14.212 0h1.854v1h-1.854z"/><g filter="url(#dz268pr71d)"><path fill="#131D30" fill-opacity=".32" d="M41.439 55H47v1h-5.561z"/><path fill="#AECFFF" d="M59.976 55h1.854v1h-1.854zm16.683 0h1.854v1h-1.854zm-22.244 0h1.854v1h-1.854z"/><path fill="#131D30" fill-opacity=".32" d="M74.187 55h1.854v1h-1.854zm-11.74 0h8.033v1h-8.033z"/></g><path fill="#131D30" fill-opacity=".32" d="M56.886 59h1.854v1h-1.854zm10.505 0h3.089v1h-3.089zm-25.952 0H47v1h-5.561zm32.131 0h2.472v1H73.57z"/><path fill="#AECFFF" d="M71.098 59h1.854v1h-1.854z"/><path fill="#131D30" fill-opacity=".32" d="M59.976 59h1.854v1h-1.854zm16.683 0h1.854v1h-1.854zm-28.423 0h8.033v1h-8.033z"/><path fill="#AECFFF" d="M62.448 59h4.325v1h-4.325z"/></g><path opacity=".28" fill="#4167B1" d="M58.636 47h2.727v2h-2.727z"/><g filter="url(#p7b5e9wloe)"><path fill="url(#bf5mwepvef)" d="M62.273 47H65v2h-2.727z"/></g><g filter="url(#3q904hls2g)"><path fill="url(#v02ld5yugh)" d="M55 47h2.727v2H55z"/></g><path opacity=".28" fill="#4167B1" d="M58.636 68h2.727v2h-2.727zm3.637 0H65v2h-2.727z"/><g filter="url(#4fnsr1boqi)"><path fill="url(#1alra4nsrj)" d="M55 68h2.727v2H55z"/></g><path opacity=".28" fill="#4167B1" d="M58.636 89h2.727v2h-2.727z"/><g filter="url(#s2xf2df6rk)"><path fill="url(#wf3et1nxgl)" d="M62.273 89H65v2h-2.727z"/></g><path opacity=".28" fill="#4167B1" d="M55 89h2.727v2H55z"/><ellipse opacity=".3" cx="60" cy="59.5" rx="53" ry="58.5" fill="url(#1sw8w8zwjm)"/></g><path fill-rule="evenodd" clip-rule="evenodd" d="M60 120c32.585 0 59-26.863 59-60S92.585 0 60 0 1 26.863 1 60s26.415 60 59 60zm0-4c29.868 0 50-23.422 50-49.555C110 40.313 89.868 16 60 16c-29.869 0-50 24.313-50 50.445C10 92.578 30.131 116 60 116z" fill="url(#o4ud9j23yn)"/><path d="M22 56l6 25.556L60 103l33.355-21.444" stroke="url(#dqnyf6vtoo)" stroke-width="1.8" stroke-linejoin="round"/><circle cx="59.749" cy="102.505" r="3.264" transform="rotate(-158 59.749 102.505)" fill="url(#73vim4n4tp)"/><g style="mix-blend-mode:lighten" opacity=".15" filter="url(#qiy7gqob7q)"><circle cx="92.227" cy="82.142" r="8" transform="rotate(-158 92.227 82.142)" fill="#C42E6C"/></g><g style="mix-blend-mode:lighten" filter="url(#coxagrpegr)"><circle cx="92.227" cy="82.142" r="4" transform="rotate(-158 92.227 82.142)" fill="#C42E6C"/></g><circle cx="92.227" cy="82.142" r="2.542" transform="rotate(-158 92.227 82.142)" fill="url(#lxu8mlb1ps)"/><path fill-rule="evenodd" clip-rule="evenodd" d="M94.019 80.513c.414.656.522 1.477.218 2.23-.514 1.271-2.006 1.867-3.334 1.33a2.692 2.692 0 01-.736-.444c.285.451.715.824 1.256 1.042 1.327.537 2.82-.059 3.333-1.33.407-1.007.077-2.135-.737-2.828z" fill="#fff" fill-opacity=".2"/><circle cx="28.354" cy="81.354" r="1.866" transform="rotate(-158 28.354 81.354)" fill="#DF2560"/><circle cx="60" cy="60" r="59" stroke="url(#mh5wujeu2t)" stroke-width="2"/><ellipse opacity=".35" cx="59.5" cy="19.5" rx="25.5" ry="11.5" fill="url(#qb8xri8seu)"/><path fill="#699CDC" d="M81 28.463H39V14h42z"/><path fill="#131D30" fill-opacity=".32" d="M48.236 19h5.561v1h-5.561zm8.65 0h1.854v1h-1.854zm14.212 0h1.854v1h-1.854zm-14.212 4h1.854v1h-1.854zm10.504 0h3.089v1H67.39zm-25.951 0H47v1h-5.561zm32.13 0h2.472v1h-2.472z"/><g filter="url(#b1ns5knx0v)"><path fill-rule="evenodd" clip-rule="evenodd" d="M41.439 19H47v1h-5.561v-1zm18.537 0h1.853v1h-1.853v-1zm18.537 0h-1.854v1h1.853v-1zm-24.098 0h1.853v1h-1.853v-1zm21.626 0h-1.854v1h1.854v-1zm-13.594 0h8.033v1h-8.033v-1zm10.504 4h-1.853v1h1.853v-1zm-12.975 0h1.853v1h-1.853v-1zm18.537 0h-1.854v1h1.854v-1zm-30.277 0h8.032v1h-8.032v-1zm18.537 0h-4.326v1h4.326v-1z" fill="#fff"/></g><defs><filter id="3c444s9f1c" x="37.439" y="32" width="45.074" height="9" filterUnits="userSpaceOnUse" color-interpolation-filters="sRGB"><feFlood flood-opacity="0" result="BackgroundImageFix"/><feColorMatrix in="SourceAlpha" values="0 0 0 0 0 0 0 0 0 0 0 0 0 0 0 0 0 0 127 0" result="hardAlpha"/><feOffset/><feGaussianBlur stdDeviation="2"/><feComposite in2="hardAlpha" operator="out"/><feColorMatrix values="0 0 0 0 1 0 0 0 0 1 0 0 0 0 1 0 0 0 0.53 0"/><feBlend in2="BackgroundImageFix" result="effect1_dropShadow_1348_29454"/><feBlend in="SourceGraphic" in2="effect1_dropShadow_1348_29454" result="shape"/></filter><filter id="dz268pr71d" x="39.439" y="53" width="41.074" height="5" filterUnits="userSpaceOnUse" color-interpolation-filters="sRGB"><feFlood flood-opacity="0" result="BackgroundImageFix"/><feColorMatrix in="SourceAlpha" values="0 0 0 0 0 0 0 0 0 0 0 0 0 0 0 0 0 0 127 0" result="hardAlpha"/><feOffset/><feGaussianBlur stdDeviation="1"/><feComposite in2="hardAlpha" operator="out"/><feColorMatrix values="0 0 0 0 0.682353 0 0 0 0 0.811765 0 0 0 0 1 0 0 0 0.53 0"/><feBlend in2="BackgroundImageFix" result="effect1_dropShadow_1348_29454"/><feBlend in="SourceGraphic" in2="effect1_dropShadow_1348_29454" result="shape"/></filter><filter id="p7b5e9wloe" x="55.273" y="40" width="16.727" height="16" filterUnits="userSpaceOnUse" color-interpolation-filters="sRGB"><feFlood flood-opacity="0" result="BackgroundImageFix"/><feColorMatrix in="SourceAlpha" values="0 0 0 0 0 0 0 0 0 0 0 0 0 0 0 0 0 0 127 0" result="hardAlpha"/><feOffset/><feGaussianBlur stdDeviation="3.5"/><feColorMatrix values="0 0 0 0 0.951002 0 0 0 0 0.370525 0 0 0 0 0.610455 0 0 0 1 0"/><feBlend in2="BackgroundImageFix" result="effect1_dropShadow_1348_29454"/><feBlend in="SourceGraphic" in2="effect1_dropShadow_1348_29454" result="shape"/></filter><filter id="3q904hls2g" x="48" y="40" width="16.727" height="16" filterUnits="userSpaceOnUse" color-interpolation-filters="sRGB"><feFlood flood-opacity="0" result="BackgroundImageFix"/><feColorMatrix in="SourceAlpha" values="0 0 0 0 0 0 0 0 0 0 0 0 0 0 0 0 0 0 127 0" result="hardAlpha"/><feOffset/><feGaussianBlur stdDeviation="3.5"/><feColorMatrix values="0 0 0 0 0.951002 0 0 0 0 0.370525 0 0 0 0 0.610455 0 0 0 1 0"/><feBlend in2="BackgroundImageFix" result="effect1_dropShadow_1348_29454"/><feBlend in="SourceGraphic" in2="effect1_dropShadow_1348_29454" result="shape"/></filter><filter id="4fnsr1boqi" x="48" y="61" width="16.727" height="16" filterUnits="userSpaceOnUse" color-interpolation-filters="sRGB"><feFlood flood-opacity="0" result="BackgroundImageFix"/><feColorMatrix in="SourceAlpha" values="0 0 0 0 0 0 0 0 0 0 0 0 0 0 0 0 0 0 127 0" result="hardAlpha"/><feOffset/><feGaussianBlur stdDeviation="3.5"/><feColorMatrix values="0 0 0 0 0.951002 0 0 0 0 0.370525 0 0 0 0 0.610455 0 0 0 1 0"/><feBlend in2="BackgroundImageFix" result="effect1_dropShadow_1348_29454"/><feBlend in="SourceGraphic" in2="effect1_dropShadow_1348_29454" result="shape"/></filter><filter id="s2xf2df6rk" x="55.273" y="82" width="16.727" height="16" filterUnits="userSpaceOnUse" color-interpolation-filters="sRGB"><feFlood flood-opacity="0" result="BackgroundImageFix"/><feColorMatrix in="SourceAlpha" values="0 0 0 0 0 0 0 0 0 0 0 0 0 0 0 0 0 0 127 0" result="hardAlpha"/><feOffset/><feGaussianBlur stdDeviation="3.5"/><feColorMatrix values="0 0 0 0 0.951002 0 0 0 0 0.370525 0 0 0 0 0.610455 0 0 0 1 0"/><feBlend in2="BackgroundImageFix" result="effect1_dropShadow_1348_29454"/><feBlend in="SourceGraphic" in2="effect1_dropShadow_1348_29454" result="shape"/></filter><filter id="qiy7gqob7q" x="76.672" y="66.587" width="31.109" height="31.109" filterUnits="userSpaceOnUse" color-interpolation-filters="sRGB"><feFlood flood-opacity="0" result="BackgroundImageFix"/><feBlend in="SourceGraphic" in2="BackgroundImageFix" result="shape"/><feGaussianBlur stdDeviation="3.776" result="effect1_foregroundBlur_1348_29454"/></filter><filter id="coxagrpegr" x="80.674" y="70.588" width="23.107" height="23.107" filterUnits="userSpaceOnUse" color-interpolation-filters="sRGB"><feFlood flood-opacity="0" result="BackgroundImageFix"/><feBlend in="SourceGraphic" in2="BackgroundImageFix" result="shape"/><feGaussianBlur stdDeviation="3.776" result="effect1_foregroundBlur_1348_29454"/></filter><filter id="b1ns5knx0v" x="37.439" y="15" width="45.074" height="13" filterUnits="userSpaceOnUse" color-interpolation-filters="sRGB"><feFlood flood-opacity="0" result="BackgroundImageFix"/><feColorMatrix in="SourceAlpha" values="0 0 0 0 0 0 0 0 0 0 0 0 0 0 0 0 0 0 127 0" result="hardAlpha"/><feOffset/><feGaussianBlur stdDeviation="2"/><feComposite in2="hardAlpha" operator="out"/><feColorMatrix values="0 0 0 0 0.995833 0 0 0 0 0.589201 0 0 0 0 0.7081 0 0 0 1 0"/><feBlend in2="BackgroundImageFix" result="effect1_dropShadow_1348_29454"/><feBlend in="SourceGraphic" in2="effect1_dropShadow_1348_29454" result="shape"/></filter><linearGradient id="bf5mwepvef" x1="61.185" y1="48" x2="61.185" y2="51.596" gradientUnits="userSpaceOnUse"><stop stop-color="#fff"/><stop offset="1" stop-color="#C42E6C"/></linearGradient><linearGradient id="v02ld5yugh" x1="53.912" y1="48" x2="53.912" y2="51.596" gradientUnits="userSpaceOnUse"><stop stop-color="#fff"/><stop offset="1" stop-color="#C42E6C"/></linearGradient><linearGradient id="1alra4nsrj" x1="53.912" y1="69" x2="53.912" y2="72.596" gradientUnits="userSpaceOnUse"><stop stop-color="#fff"/><stop offset="1" stop-color="#C42E6C"/></linearGradient><linearGradient id="wf3et1nxgl" x1="61.185" y1="90" x2="61.185" y2="93.596" gradientUnits="userSpaceOnUse"><stop stop-color="#fff"/><stop offset="1" stop-color="#C42E6C"/></linearGradient><linearGradient id="dqnyf6vtoo" x1="23" y1="60.5" x2="32.545" y2="101.547" gradientUnits="userSpaceOnUse"><stop stop-color="#F4487D" stop-opacity="0"/><stop offset="1" stop-color="#FC3A78"/></linearGradient><linearGradient id="73vim4n4tp" x1="66.935" y1="95.886" x2="48.53" y2="84.71" gradientUnits="userSpaceOnUse"><stop stop-color="#DD1E5B"/><stop offset="1" stop-color="#EFC7D8"/></linearGradient><linearGradient id="lxu8mlb1ps" x1="89.039" y1="77.651" x2="92.499" y2="84.881" gradientUnits="userSpaceOnUse"><stop stop-color="#FB3B78"/><stop offset="1" stop-color="#EFC7D8"/></linearGradient><linearGradient id="mh5wujeu2t" x1="-25.227" y1="22.708" x2="4.038" y2="134.632" gradientUnits="userSpaceOnUse"><stop stop-color="#FF5E92"/><stop offset="1" stop-color="#ED4653"/></linearGradient><radialGradient id="xxncqmqhsb" cx="0" cy="0" r="1" gradientUnits="userSpaceOnUse" gradientTransform="matrix(0 118 -118 0 60 0)"><stop stop-color="#263A5E"/><stop offset="1" stop-color="#0C1321"/></radialGradient><radialGradient id="1sw8w8zwjm" cx="0" cy="0" r="1" gradientUnits="userSpaceOnUse" gradientTransform="scale(183.183 129.103) rotate(-90 .678 .33)"><stop stop-color="#D12A6F"/><stop offset="1" stop-color="#83234B" stop-opacity=".01"/></radialGradient><radialGradient id="o4ud9j23yn" cx="0" cy="0" r="1" gradientUnits="userSpaceOnUse" gradientTransform="rotate(90.575 18.88 23.125) scale(119.028)"><stop stop-color="#71A3EC"/><stop offset="1" stop-color="#152747"/></radialGradient><radialGradient id="qb8xri8seu" cx="0" cy="0" r="1" gradientUnits="userSpaceOnUse" gradientTransform="matrix(0 11.5 -25.5 0 59.5 19.5)"><stop stop-color="#192C4D"/><stop offset="1" stop-color="#1A2E50" stop-opacity="0"/></radialGradient></defs></svg>