<svg width="120" height="120" fill="none" xmlns="http://www.w3.org/2000/svg"><circle cx="60" cy="60" r="60" fill="url(#79o9b4424a)"/><circle cx="60" cy="60" r="59" stroke="url(#x6t80650db)" stroke-width="2"/><rect x="9" y="69" width="17" height="37" rx="3" fill="url(#3uok9pgrtc)"/><path fill="url(#x5468f5j4d)" fill-opacity=".4" d="M15 69h11v37H15z"/><ellipse opacity=".8" cx="22" cy="48" rx="17" ry="4" fill="url(#0ysquw8the)"/><ellipse opacity=".8" cx="98" cy="48" rx="17" ry="4" fill="url(#m60arcd1sf)"/><path d="M5 16a4 4 0 014-4h26a4 4 0 014 4v27a4 4 0 01-4 4H9a4 4 0 01-4-4V16z" fill="url(#0g01iaum2g)"/><path opacity=".541" d="M5 16a4 4 0 014-4h26a4 4 0 014 4v27a4 4 0 01-4 4H9a4 4 0 01-4-4V16z" fill="url(#563lrub8jh)"/><path d="M7 17a2 2 0 012-2h26a2 2 0 012 2v13a2 2 0 01-2 2H9a2 2 0 01-2-2V17z" fill="#162338"/><path opacity=".15" fill-rule="evenodd" clip-rule="evenodd" d="M9 15a2 2 0 00-2 2v13a2 2 0 002 2h3.77V21.857a2 2 0 012-2H37V17a2 2 0 00-2-2H9z" fill="url(#uc8pqyl7pi)"/><path fill="#6C9CE1" fill-opacity=".3" d="M13.962 18.643h3.808v1.7h-3.808zm5.923 0h1.269v1.7h-1.269zm9.731 0h1.269v1.7h-1.269z"/><g filter="url(#juunm86epj)"><path fill="#AECFFF" d="M22 18.643h1.269v1.7H22zm-3.808 0h1.269v1.7h-1.269z"/><g filter="url(#pse8g40sdk)"><path fill="#AECFFF" d="M31.731 18.643H33v1.7h-1.269z"/></g><path fill="#AECFFF" d="M23.692 18.643h5.5v1.7h-5.5z"/></g><path fill="#6C9CE1" fill-opacity=".3" d="M19.885 25.443h1.269v1.7h-1.269zm7.192 0h2.115v1.7h-2.115zm-17.769 0h3.808v1.7H9.308zm22 0H33v1.7h-1.692z"/><g filter="url(#8hgniaeakl)"><path fill="#AECFFF" d="M29.616 25.443h1.269v1.7h-1.269z"/></g><g filter="url(#jdiv6y81qm)"><path fill="#AECFFF" d="M22 25.443h1.269v1.7H22z"/></g><g filter="url(#606k4gpsjn)"><path fill="#AECFFF" d="M33.423 25.443h1.269v1.7h-1.269z"/></g><g filter="url(#nll9h2u5ho)"><path fill="#AECFFF" d="M13.962 25.443h5.5v1.7h-5.5z"/></g><path d="M60 63v-7.385H22V47m38 16v-7.385h38V47M60 66V45" stroke="#0C131E" stroke-width="4"/><path d="M60 48v18" stroke="url(#fvvkiyur6p)" stroke-linecap="round"/><path d="M81 16a4 4 0 014-4h26a4 4 0 014 4v27a4 4 0 01-4 4H85a4 4 0 01-4-4V16z" fill="url(#unhs7xa1xq)"/><path opacity=".541" d="M81 16a4 4 0 014-4h26a4 4 0 014 4v27a4 4 0 01-4 4H85a4 4 0 01-4-4V16z" fill="url(#zuwumrbt6r)"/><path d="M83 17a2 2 0 012-2h26a2 2 0 012 2v13a2 2 0 01-2 2H85a2 2 0 01-2-2V17z" fill="#162338"/><path opacity=".15" fill-rule="evenodd" clip-rule="evenodd" d="M85 15a2 2 0 00-2 2v13a2 2 0 002 2h3.77V21.857a2 2 0 012-2H113V17a2 2 0 00-2-2H85z" fill="url(#eemwyg520s)"/><path fill="#6C9CE1" fill-opacity=".3" d="M106.038 27.143h-3.808v-1.7h3.808zm-5.923 0h-1.269v-1.7h1.269zm-9.731 0h-1.269v-1.7h1.27z"/><g filter="url(#1n3jp8fj3t)"><path fill="#AECFFF" d="M98 27.143h-1.269v-1.7H98zm3.808 0h-1.269v-1.7h1.269z"/><g filter="url(#da0xzgf6fu)"><path fill="#AECFFF" d="M88.27 27.143H87v-1.7h1.27z"/></g><path fill="#AECFFF" d="M96.307 27.143h-5.5v-1.7h5.5z"/></g><path fill="#6C9CE1" fill-opacity=".3" d="M100.115 20.343h-1.269v-1.7h1.269zm-7.192 0h-2.115v-1.7h2.115zm17.769 0h-3.808v-1.7h3.808zm-21.999 0H87v-1.7h1.692z"/><g filter="url(#x4cs8xet2v)"><path fill="#AECFFF" d="M90.384 20.343h-1.269v-1.7h1.27z"/></g><g filter="url(#hi059306pw)"><path fill="#AECFFF" d="M98 20.343h-1.27v-1.7H98z"/></g><g filter="url(#jqkrahy8zx)"><path fill="#AECFFF" d="M86.577 20.343h-1.27v-1.7h1.27z"/></g><g filter="url(#byz2huxswy)"><path fill="#AECFFF" d="M106.038 20.343h-5.5v-1.7h5.5z"/></g><ellipse opacity=".8" cx="60" cy="48" rx="17" ry="4" fill="url(#9a32nsyrnz)"/><path d="M43 16a4 4 0 014-4h26a4 4 0 014 4v27a4 4 0 01-4 4H47a4 4 0 01-4-4V16z" fill="url(#dg8evkqtaA)"/><path opacity=".541" d="M43 16a4 4 0 014-4h26a4 4 0 014 4v27a4 4 0 01-4 4H47a4 4 0 01-4-4V16z" fill="url(#7jscppb98B)"/><rect x="47" y="15" width="29" height="2" rx="1" transform="rotate(90 47 15)" fill="#162338"/><path fill="#AECFFF" d="M45.5 17h1v3h-1z"/><path fill="#385075" d="M45.5 22h1v3h-1z"/><path fill="#364D72" d="M45.5 27h1v3h-1z"/><path fill="#AECFFF" d="M45.5 32h1v3h-1z"/><path fill="#364E72" d="M45.5 37h1v3h-1z"/><path d="M49 17a2 2 0 012-2h22a2 2 0 012 2v24a2 2 0 01-2 2H51a2 2 0 01-2-2V17z" fill="#162338"/><path opacity=".15" fill-rule="evenodd" clip-rule="evenodd" d="M51 15a2 2 0 00-2 2v24a2 2 0 002 2h7V25a2 2 0 012-2h15v-6a2 2 0 00-2-2H51z" fill="url(#3t2rggp3hC)"/><path fill="#6C9CE1" fill-opacity=".3" d="M55.033 18h3.3v1.4h-3.3zm5.134 0h1.1v1.4h-1.1zm8.433 0h1.1v1.4h-1.1z"/><g filter="url(#e9ho1k3a5D)"><g filter="url(#ttp8e4df7E)"><path fill="#AECFFF" d="M51 18h3.3v1.4H51z"/></g><g filter="url(#89mrrm49qF)"><path fill="#AECFFF" d="M62 18h1.1v1.4H62z"/></g><g filter="url(#9b7sbw1ouG)"><path fill="#AECFFF" d="M71.9 18H73v1.4h-1.1z"/></g><g filter="url(#kl7ynawtzH)"><path fill="#AECFFF" d="M58.7 18h1.1v1.4h-1.1z"/></g><g filter="url(#ayxwf5vcgI)"><path fill="#AECFFF" d="M70.433 18h1.1v1.4h-1.1z"/></g><path fill="#AECFFF" d="M63.467 18h4.767v1.4h-4.767z"/></g><path fill="#6C9CE1" fill-opacity=".3" d="M55 23.6h1.1V25H55zm11.4 0h1.833V25H66.4zm-15.4 0h3.3V25H51zm19.067 0h1.467V25h-1.467z"/><path fill="#AECFFF" d="M68.6 23.6h1.1V25h-1.1z"/><g filter="url(#i8914tfcqJ)"><path fill="#AECFFF" d="M58 23.6h1.1V25H58z"/></g><path fill="#AECFFF" d="M71.9 23.6H73V25h-1.1z"/><g filter="url(#64nqkybn5K)"><path fill="#AECFFF" d="M61 23.6h2.567V25H61z"/></g><ellipse opacity=".8" cx="60" cy="113" rx="41" ry="4" fill="url(#5hmhc50ttL)"/><path d="M16 70a6 6 0 016-6h76a6 6 0 016 6v37a6 6 0 01-6 6H22a6 6 0 01-6-6V70z" fill="url(#c6berqt2nM)"/><path opacity=".541" d="M16 70a6 6 0 016-6h76a6 6 0 016 6v37a6 6 0 01-6 6H22a6 6 0 01-6-6V70z" fill="url(#8wm5batsuN)"/><path d="M20 70a2 2 0 012-2h77a2 2 0 012 2v25a2 2 0 01-2 2H22a2 2 0 01-2-2V70z" fill="#162338"/><circle opacity=".8" cx="74.5" cy="28.5" transform="rotate(90 74.5 28.5)" fill="url(#lv8cwpxduO)" r="8.5"/><path d="M75.5 28.5l40 23.5-5.486 38H104" stroke="url(#w93yh88q0P)" stroke-width="2.001" stroke-linejoin="round"/><ellipse cx="2.507" cy="2.51" rx="2.507" ry="2.51" transform="rotate(90 34.51 83.51)" fill="#fff"/><circle cx="110.014" cy="90" transform="rotate(90 110.014 90)" fill="#fff" r="2"/><circle cx="75.3" cy="28.5" transform="rotate(90 75.3 28.5)" fill="#fff" r="2.5"/><g filter="url(#3tj9x34vbQ)"><path fill="#AECFFF" d="M25 73h3v3h-3z"/></g><path fill="#2A3548" d="M30 73h3v3h-3z"/><g filter="url(#6pwek0q8lR)"><path fill="#AECFFF" d="M40 73h3v3h-3z"/></g><path fill="#2A3548" d="M45 73h3v3h-3zm25 0h3v3h-3zm5 0h3v3h-3z"/><g filter="url(#yej9jvnm3S)"><path fill="#AECFFF" d="M80 73h3v3h-3z"/></g><path fill="#2A3548" d="M95 73h3v3h-3z"/><g filter="url(#xnecrylffT)"><path fill="#AECFFF" d="M35 73h3v3h-3z"/></g><g filter="url(#hd0poncprU)"><path fill="#AECFFF" d="M55 73h3v3h-3z"/></g><g filter="url(#fqrmgfr76V)"><path fill="#AECFFF" d="M65 73h3v3h-3z"/></g><path fill="#2A3548" d="M85 73h3v3h-3z"/><g filter="url(#gv31o4yxbW)"><path fill="#AECFFF" d="M90 73h3v3h-3z"/></g><g filter="url(#e3ciwgt4zX)"><path fill="#AECFFF" d="M50 73h3v3h-3z"/></g><g filter="url(#nftql3tscY)"><path fill="#AECFFF" d="M60 73h3v3h-3z"/></g><path fill="#2A3548" d="M25 90h3v3h-3z"/><g filter="url(#rwte67pdrZ)"><path fill="#AECFFF" d="M30 90h3v3h-3z"/></g><path fill="#2A3548" d="M40 90h3v3h-3zm5 0h3v3h-3zm25 0h3v3h-3z"/><g filter="url(#q208hb4nbaa)"><path fill="#AECFFF" d="M75 90h3v3h-3z"/></g><path fill="#2A3548" d="M80 90h3v3h-3zm15 0h3v3h-3z"/><g filter="url(#nu24m7dbxab)"><path fill="#AECFFF" d="M35 90h3v3h-3z"/></g><g filter="url(#n2fg037y6ac)"><path fill="#AECFFF" d="M55 90h3v3h-3z"/></g><g filter="url(#asz7fj3iead)"><path fill="#AECFFF" d="M65 90h3v3h-3z"/></g><g filter="url(#wpfo39mvsae)"><path fill="#AECFFF" d="M85 90h3v3h-3z"/></g><g filter="url(#j4u9byrzraf)"><path fill="#AECFFF" d="M90 90h3v3h-3z"/></g><g filter="url(#9ak29bjkpag)"><path fill="#AECFFF" d="M50 90h3v3h-3z"/></g><path fill="#2A3548" d="M60 90h3v3h-3z"/><path d="M26.5 76v3.5h5V90" stroke="url(#8wjzcti3zah)" stroke-width=".5"/><path d="M56.5 76v9.5h10V90" stroke="url(#a28kqmtddai)" stroke-width=".5"/><path d="M41.5 76v4.5h10V90" stroke="url(#cheujl24taj)" stroke-width=".5"/><path d="M36.5 90v-7.5h45V76" stroke="url(#rvq151lt0ak)" stroke-width=".5"/><path d="M66.5 76v2h25v12" stroke="url(#rb87vv6bbal)" stroke-width=".5"/><path opacity=".15" fill-rule="evenodd" clip-rule="evenodd" d="M22 68a2 2 0 00-2 2v25a2 2 0 002 2h16v-6c0-7.732 6.268-14 14-14h49v-7a2 2 0 00-2-2H22z" fill="url(#enmjbwe3tam)"/><rect opacity=".6" x="14.723" y="95" width="8.686" height="3.723" rx="1.861" transform="rotate(90 14.723 95)" fill="#0C131E"/><circle cx="12.861" cy="96.861" fill="#6C9CE1" fill-opacity=".3" r=".62"/><g filter="url(#dppbmamk5an)"><circle cx="12.861" cy="99.343" fill="url(#s0dtjm139ao)" r=".62"/></g><circle cx="12.861" cy="101.825" fill="#6C9CE1" fill-opacity=".3" r=".62"/><rect opacity=".6" x="14.723" y="72" width="8.686" height="3.723" rx="1.861" transform="rotate(90 14.723 72)" fill="#0C131E"/><circle cx="12.861" cy="73.861" fill="#6C9CE1" fill-opacity=".3" r=".62"/><circle cx="12.861" cy="76.343" fill="#6C9CE1" fill-opacity=".3" r=".62"/><g filter="url(#18i2ziis1ap)"><circle cx="12.861" cy="78.825" fill="url(#c60m6jpteaq)" r=".62"/></g><path d="M27.598 62.201C27.598 57 13 58.5 13 69" stroke="#465C7F" stroke-width=".97"/><rect x="28.942" y="63.26" width="2.821" height="2.422" rx=".785" transform="rotate(-180 28.942 63.26)" fill="#21324E"/><rect x="29.938" y="64.295" width="4.938" height="2.07" rx=".785" transform="rotate(-180 29.938 64.295)" fill="#465C7F"/><rect opacity=".541" x="29.938" y="64.295" width="4.938" height="2.07" rx=".79" transform="rotate(-180 29.938 64.295)" fill="url(#to0rgt100ar)"/><defs><filter id="juunm86epj" x="16.962" y="17.412" width="17.269" height="4.162" filterUnits="userSpaceOnUse" color-interpolation-filters="sRGB"><feFlood flood-opacity="0" result="BackgroundImageFix"/><feColorMatrix in="SourceAlpha" values="0 0 0 0 0 0 0 0 0 0 0 0 0 0 0 0 0 0 127 0" result="hardAlpha"/><feOffset/><feGaussianBlur stdDeviation=".615"/><feComposite in2="hardAlpha" operator="out"/><feColorMatrix values="0 0 0 0 0.682353 0 0 0 0 0.811765 0 0 0 0 1 0 0 0 0.53 0"/><feBlend in2="BackgroundImageFix" result="effect1_dropShadow_1559_31234"/><feBlend in="SourceGraphic" in2="effect1_dropShadow_1559_31234" result="shape"/></filter><filter id="pse8g40sdk" x="29.731" y="16.643" width="5.269" height="5.7" filterUnits="userSpaceOnUse" color-interpolation-filters="sRGB"><feFlood flood-opacity="0" result="BackgroundImageFix"/><feColorMatrix in="SourceAlpha" values="0 0 0 0 0 0 0 0 0 0 0 0 0 0 0 0 0 0 127 0" result="hardAlpha"/><feOffset/><feGaussianBlur stdDeviation="1"/><feColorMatrix values="0 0 0 0 0.682353 0 0 0 0 0.811765 0 0 0 0 1 0 0 0 0.5 0"/><feBlend in2="BackgroundImageFix" result="effect1_dropShadow_1559_31234"/><feBlend in="SourceGraphic" in2="effect1_dropShadow_1559_31234" result="shape"/></filter><filter id="8hgniaeakl" x="27.616" y="23.443" width="5.269" height="5.7" filterUnits="userSpaceOnUse" color-interpolation-filters="sRGB"><feFlood flood-opacity="0" result="BackgroundImageFix"/><feColorMatrix in="SourceAlpha" values="0 0 0 0 0 0 0 0 0 0 0 0 0 0 0 0 0 0 127 0" result="hardAlpha"/><feOffset/><feGaussianBlur stdDeviation="1"/><feColorMatrix values="0 0 0 0 0.682353 0 0 0 0 0.811765 0 0 0 0 1 0 0 0 0.5 0"/><feBlend in2="BackgroundImageFix" result="effect1_dropShadow_1559_31234"/><feBlend in="SourceGraphic" in2="effect1_dropShadow_1559_31234" result="shape"/></filter><filter id="jdiv6y81qm" x="20" y="23.443" width="5.269" height="5.7" filterUnits="userSpaceOnUse" color-interpolation-filters="sRGB"><feFlood flood-opacity="0" result="BackgroundImageFix"/><feColorMatrix in="SourceAlpha" values="0 0 0 0 0 0 0 0 0 0 0 0 0 0 0 0 0 0 127 0" result="hardAlpha"/><feOffset/><feGaussianBlur stdDeviation="1"/><feColorMatrix values="0 0 0 0 0.682353 0 0 0 0 0.811765 0 0 0 0 1 0 0 0 0.5 0"/><feBlend in2="BackgroundImageFix" result="effect1_dropShadow_1559_31234"/><feBlend in="SourceGraphic" in2="effect1_dropShadow_1559_31234" result="shape"/></filter><filter id="606k4gpsjn" x="31.423" y="23.443" width="5.269" height="5.7" filterUnits="userSpaceOnUse" color-interpolation-filters="sRGB"><feFlood flood-opacity="0" result="BackgroundImageFix"/><feColorMatrix in="SourceAlpha" values="0 0 0 0 0 0 0 0 0 0 0 0 0 0 0 0 0 0 127 0" result="hardAlpha"/><feOffset/><feGaussianBlur stdDeviation="1"/><feColorMatrix values="0 0 0 0 0.682353 0 0 0 0 0.811765 0 0 0 0 1 0 0 0 0.5 0"/><feBlend in2="BackgroundImageFix" result="effect1_dropShadow_1559_31234"/><feBlend in="SourceGraphic" in2="effect1_dropShadow_1559_31234" result="shape"/></filter><filter id="nll9h2u5ho" x="11.962" y="23.443" width="9.5" height="5.7" filterUnits="userSpaceOnUse" color-interpolation-filters="sRGB"><feFlood flood-opacity="0" result="BackgroundImageFix"/><feColorMatrix in="SourceAlpha" values="0 0 0 0 0 0 0 0 0 0 0 0 0 0 0 0 0 0 127 0" result="hardAlpha"/><feOffset/><feGaussianBlur stdDeviation="1"/><feColorMatrix values="0 0 0 0 0.682353 0 0 0 0 0.811765 0 0 0 0 1 0 0 0 0.5 0"/><feBlend in2="BackgroundImageFix" result="effect1_dropShadow_1559_31234"/><feBlend in="SourceGraphic" in2="effect1_dropShadow_1559_31234" result="shape"/></filter><filter id="1n3jp8fj3t" x="85.769" y="24.212" width="17.269" height="4.162" filterUnits="userSpaceOnUse" color-interpolation-filters="sRGB"><feFlood flood-opacity="0" result="BackgroundImageFix"/><feColorMatrix in="SourceAlpha" values="0 0 0 0 0 0 0 0 0 0 0 0 0 0 0 0 0 0 127 0" result="hardAlpha"/><feOffset/><feGaussianBlur stdDeviation=".615"/><feComposite in2="hardAlpha" operator="out"/><feColorMatrix values="0 0 0 0 0.682353 0 0 0 0 0.811765 0 0 0 0 1 0 0 0 0.53 0"/><feBlend in2="BackgroundImageFix" result="effect1_dropShadow_1559_31234"/><feBlend in="SourceGraphic" in2="effect1_dropShadow_1559_31234" result="shape"/></filter><filter id="da0xzgf6fu" x="85" y="23.443" width="5.269" height="5.7" filterUnits="userSpaceOnUse" color-interpolation-filters="sRGB"><feFlood flood-opacity="0" result="BackgroundImageFix"/><feColorMatrix in="SourceAlpha" values="0 0 0 0 0 0 0 0 0 0 0 0 0 0 0 0 0 0 127 0" result="hardAlpha"/><feOffset/><feGaussianBlur stdDeviation="1"/><feColorMatrix values="0 0 0 0 0.682353 0 0 0 0 0.811765 0 0 0 0 1 0 0 0 0.5 0"/><feBlend in2="BackgroundImageFix" result="effect1_dropShadow_1559_31234"/><feBlend in="SourceGraphic" in2="effect1_dropShadow_1559_31234" result="shape"/></filter><filter id="x4cs8xet2v" x="87.115" y="16.643" width="5.269" height="5.7" filterUnits="userSpaceOnUse" color-interpolation-filters="sRGB"><feFlood flood-opacity="0" result="BackgroundImageFix"/><feColorMatrix in="SourceAlpha" values="0 0 0 0 0 0 0 0 0 0 0 0 0 0 0 0 0 0 127 0" result="hardAlpha"/><feOffset/><feGaussianBlur stdDeviation="1"/><feColorMatrix values="0 0 0 0 0.682353 0 0 0 0 0.811765 0 0 0 0 1 0 0 0 0.5 0"/><feBlend in2="BackgroundImageFix" result="effect1_dropShadow_1559_31234"/><feBlend in="SourceGraphic" in2="effect1_dropShadow_1559_31234" result="shape"/></filter><filter id="hi059306pw" x="94.731" y="16.643" width="5.269" height="5.7" filterUnits="userSpaceOnUse" color-interpolation-filters="sRGB"><feFlood flood-opacity="0" result="BackgroundImageFix"/><feColorMatrix in="SourceAlpha" values="0 0 0 0 0 0 0 0 0 0 0 0 0 0 0 0 0 0 127 0" result="hardAlpha"/><feOffset/><feGaussianBlur stdDeviation="1"/><feColorMatrix values="0 0 0 0 0.682353 0 0 0 0 0.811765 0 0 0 0 1 0 0 0 0.5 0"/><feBlend in2="BackgroundImageFix" result="effect1_dropShadow_1559_31234"/><feBlend in="SourceGraphic" in2="effect1_dropShadow_1559_31234" result="shape"/></filter><filter id="jqkrahy8zx" x="83.308" y="16.643" width="5.269" height="5.7" filterUnits="userSpaceOnUse" color-interpolation-filters="sRGB"><feFlood flood-opacity="0" result="BackgroundImageFix"/><feColorMatrix in="SourceAlpha" values="0 0 0 0 0 0 0 0 0 0 0 0 0 0 0 0 0 0 127 0" result="hardAlpha"/><feOffset/><feGaussianBlur stdDeviation="1"/><feColorMatrix values="0 0 0 0 0.682353 0 0 0 0 0.811765 0 0 0 0 1 0 0 0 0.5 0"/><feBlend in2="BackgroundImageFix" result="effect1_dropShadow_1559_31234"/><feBlend in="SourceGraphic" in2="effect1_dropShadow_1559_31234" result="shape"/></filter><filter id="byz2huxswy" x="98.538" y="16.643" width="9.5" height="5.7" filterUnits="userSpaceOnUse" color-interpolation-filters="sRGB"><feFlood flood-opacity="0" result="BackgroundImageFix"/><feColorMatrix in="SourceAlpha" values="0 0 0 0 0 0 0 0 0 0 0 0 0 0 0 0 0 0 127 0" result="hardAlpha"/><feOffset/><feGaussianBlur stdDeviation="1"/><feColorMatrix values="0 0 0 0 0.682353 0 0 0 0 0.811765 0 0 0 0 1 0 0 0 0.5 0"/><feBlend in2="BackgroundImageFix" result="effect1_dropShadow_1559_31234"/><feBlend in="SourceGraphic" in2="effect1_dropShadow_1559_31234" result="shape"/></filter><filter id="e9ho1k3a5D" x="49.769" y="16.769" width="24.462" height="3.862" filterUnits="userSpaceOnUse" color-interpolation-filters="sRGB"><feFlood flood-opacity="0" result="BackgroundImageFix"/><feColorMatrix in="SourceAlpha" values="0 0 0 0 0 0 0 0 0 0 0 0 0 0 0 0 0 0 127 0" result="hardAlpha"/><feOffset/><feGaussianBlur stdDeviation=".615"/><feComposite in2="hardAlpha" operator="out"/><feColorMatrix values="0 0 0 0 0.682353 0 0 0 0 0.811765 0 0 0 0 1 0 0 0 0.53 0"/><feBlend in2="BackgroundImageFix" result="effect1_dropShadow_1559_31234"/><feBlend in="SourceGraphic" in2="effect1_dropShadow_1559_31234" result="shape"/></filter><filter id="ttp8e4df7E" x="49" y="16" width="7.3" height="5.4" filterUnits="userSpaceOnUse" color-interpolation-filters="sRGB"><feFlood flood-opacity="0" result="BackgroundImageFix"/><feColorMatrix in="SourceAlpha" values="0 0 0 0 0 0 0 0 0 0 0 0 0 0 0 0 0 0 127 0" result="hardAlpha"/><feOffset/><feGaussianBlur stdDeviation="1"/><feColorMatrix values="0 0 0 0 0.682353 0 0 0 0 0.811765 0 0 0 0 1 0 0 0 0.5 0"/><feBlend in2="BackgroundImageFix" result="effect1_dropShadow_1559_31234"/><feBlend in="SourceGraphic" in2="effect1_dropShadow_1559_31234" result="shape"/></filter><filter id="89mrrm49qF" x="60" y="16" width="5.1" height="5.4" filterUnits="userSpaceOnUse" color-interpolation-filters="sRGB"><feFlood flood-opacity="0" result="BackgroundImageFix"/><feColorMatrix in="SourceAlpha" values="0 0 0 0 0 0 0 0 0 0 0 0 0 0 0 0 0 0 127 0" result="hardAlpha"/><feOffset/><feGaussianBlur stdDeviation="1"/><feColorMatrix values="0 0 0 0 0.682353 0 0 0 0 0.811765 0 0 0 0 1 0 0 0 0.5 0"/><feBlend in2="BackgroundImageFix" result="effect1_dropShadow_1559_31234"/><feBlend in="SourceGraphic" in2="effect1_dropShadow_1559_31234" result="shape"/></filter><filter id="9b7sbw1ouG" x="69.9" y="16" width="5.1" height="5.4" filterUnits="userSpaceOnUse" color-interpolation-filters="sRGB"><feFlood flood-opacity="0" result="BackgroundImageFix"/><feColorMatrix in="SourceAlpha" values="0 0 0 0 0 0 0 0 0 0 0 0 0 0 0 0 0 0 127 0" result="hardAlpha"/><feOffset/><feGaussianBlur stdDeviation="1"/><feColorMatrix values="0 0 0 0 0.682353 0 0 0 0 0.811765 0 0 0 0 1 0 0 0 0.5 0"/><feBlend in2="BackgroundImageFix" result="effect1_dropShadow_1559_31234"/><feBlend in="SourceGraphic" in2="effect1_dropShadow_1559_31234" result="shape"/></filter><filter id="kl7ynawtzH" x="56.7" y="16" width="5.1" height="5.4" filterUnits="userSpaceOnUse" color-interpolation-filters="sRGB"><feFlood flood-opacity="0" result="BackgroundImageFix"/><feColorMatrix in="SourceAlpha" values="0 0 0 0 0 0 0 0 0 0 0 0 0 0 0 0 0 0 127 0" result="hardAlpha"/><feOffset/><feGaussianBlur stdDeviation="1"/><feColorMatrix values="0 0 0 0 0.682353 0 0 0 0 0.811765 0 0 0 0 1 0 0 0 0.5 0"/><feBlend in2="BackgroundImageFix" result="effect1_dropShadow_1559_31234"/><feBlend in="SourceGraphic" in2="effect1_dropShadow_1559_31234" result="shape"/></filter><filter id="ayxwf5vcgI" x="68.433" y="16" width="5.1" height="5.4" filterUnits="userSpaceOnUse" color-interpolation-filters="sRGB"><feFlood flood-opacity="0" result="BackgroundImageFix"/><feColorMatrix in="SourceAlpha" values="0 0 0 0 0 0 0 0 0 0 0 0 0 0 0 0 0 0 127 0" result="hardAlpha"/><feOffset/><feGaussianBlur stdDeviation="1"/><feColorMatrix values="0 0 0 0 0.682353 0 0 0 0 0.811765 0 0 0 0 1 0 0 0 0.5 0"/><feBlend in2="BackgroundImageFix" result="effect1_dropShadow_1559_31234"/><feBlend in="SourceGraphic" in2="effect1_dropShadow_1559_31234" result="shape"/></filter><filter id="i8914tfcqJ" x="56" y="21.6" width="5.1" height="5.4" filterUnits="userSpaceOnUse" color-interpolation-filters="sRGB"><feFlood flood-opacity="0" result="BackgroundImageFix"/><feColorMatrix in="SourceAlpha" values="0 0 0 0 0 0 0 0 0 0 0 0 0 0 0 0 0 0 127 0" result="hardAlpha"/><feOffset/><feGaussianBlur stdDeviation="1"/><feColorMatrix values="0 0 0 0 0.682353 0 0 0 0 0.811765 0 0 0 0 1 0 0 0 0.5 0"/><feBlend in2="BackgroundImageFix" result="effect1_dropShadow_1559_31234"/><feBlend in="SourceGraphic" in2="effect1_dropShadow_1559_31234" result="shape"/></filter><filter id="64nqkybn5K" x="59" y="21.6" width="6.567" height="5.4" filterUnits="userSpaceOnUse" color-interpolation-filters="sRGB"><feFlood flood-opacity="0" result="BackgroundImageFix"/><feColorMatrix in="SourceAlpha" values="0 0 0 0 0 0 0 0 0 0 0 0 0 0 0 0 0 0 127 0" result="hardAlpha"/><feOffset/><feGaussianBlur stdDeviation="1"/><feColorMatrix values="0 0 0 0 0.682353 0 0 0 0 0.811765 0 0 0 0 1 0 0 0 0.5 0"/><feBlend in2="BackgroundImageFix" result="effect1_dropShadow_1559_31234"/><feBlend in="SourceGraphic" in2="effect1_dropShadow_1559_31234" result="shape"/></filter><filter id="3tj9x34vbQ" x="23" y="71" width="7" height="7" filterUnits="userSpaceOnUse" color-interpolation-filters="sRGB"><feFlood flood-opacity="0" result="BackgroundImageFix"/><feColorMatrix in="SourceAlpha" values="0 0 0 0 0 0 0 0 0 0 0 0 0 0 0 0 0 0 127 0" result="hardAlpha"/><feOffset/><feGaussianBlur stdDeviation="1"/><feColorMatrix values="0 0 0 0 0.682353 0 0 0 0 0.811765 0 0 0 0 1 0 0 0 0.5 0"/><feBlend in2="BackgroundImageFix" result="effect1_dropShadow_1559_31234"/><feBlend in="SourceGraphic" in2="effect1_dropShadow_1559_31234" result="shape"/></filter><filter id="6pwek0q8lR" x="38" y="71" width="7" height="7" filterUnits="userSpaceOnUse" color-interpolation-filters="sRGB"><feFlood flood-opacity="0" result="BackgroundImageFix"/><feColorMatrix in="SourceAlpha" values="0 0 0 0 0 0 0 0 0 0 0 0 0 0 0 0 0 0 127 0" result="hardAlpha"/><feOffset/><feGaussianBlur stdDeviation="1"/><feColorMatrix values="0 0 0 0 0.682353 0 0 0 0 0.811765 0 0 0 0 1 0 0 0 0.5 0"/><feBlend in2="BackgroundImageFix" result="effect1_dropShadow_1559_31234"/><feBlend in="SourceGraphic" in2="effect1_dropShadow_1559_31234" result="shape"/></filter><filter id="yej9jvnm3S" x="78" y="71" width="7" height="7" filterUnits="userSpaceOnUse" color-interpolation-filters="sRGB"><feFlood flood-opacity="0" result="BackgroundImageFix"/><feColorMatrix in="SourceAlpha" values="0 0 0 0 0 0 0 0 0 0 0 0 0 0 0 0 0 0 127 0" result="hardAlpha"/><feOffset/><feGaussianBlur stdDeviation="1"/><feColorMatrix values="0 0 0 0 0.682353 0 0 0 0 0.811765 0 0 0 0 1 0 0 0 0.5 0"/><feBlend in2="BackgroundImageFix" result="effect1_dropShadow_1559_31234"/><feBlend in="SourceGraphic" in2="effect1_dropShadow_1559_31234" result="shape"/></filter><filter id="xnecrylffT" x="33" y="71" width="7" height="7" filterUnits="userSpaceOnUse" color-interpolation-filters="sRGB"><feFlood flood-opacity="0" result="BackgroundImageFix"/><feColorMatrix in="SourceAlpha" values="0 0 0 0 0 0 0 0 0 0 0 0 0 0 0 0 0 0 127 0" result="hardAlpha"/><feOffset/><feGaussianBlur stdDeviation="1"/><feColorMatrix values="0 0 0 0 0.682353 0 0 0 0 0.811765 0 0 0 0 1 0 0 0 0.5 0"/><feBlend in2="BackgroundImageFix" result="effect1_dropShadow_1559_31234"/><feBlend in="SourceGraphic" in2="effect1_dropShadow_1559_31234" result="shape"/></filter><filter id="hd0poncprU" x="53" y="71" width="7" height="7" filterUnits="userSpaceOnUse" color-interpolation-filters="sRGB"><feFlood flood-opacity="0" result="BackgroundImageFix"/><feColorMatrix in="SourceAlpha" values="0 0 0 0 0 0 0 0 0 0 0 0 0 0 0 0 0 0 127 0" result="hardAlpha"/><feOffset/><feGaussianBlur stdDeviation="1"/><feColorMatrix values="0 0 0 0 0.682353 0 0 0 0 0.811765 0 0 0 0 1 0 0 0 0.5 0"/><feBlend in2="BackgroundImageFix" result="effect1_dropShadow_1559_31234"/><feBlend in="SourceGraphic" in2="effect1_dropShadow_1559_31234" result="shape"/></filter><filter id="fqrmgfr76V" x="63" y="71" width="7" height="7" filterUnits="userSpaceOnUse" color-interpolation-filters="sRGB"><feFlood flood-opacity="0" result="BackgroundImageFix"/><feColorMatrix in="SourceAlpha" values="0 0 0 0 0 0 0 0 0 0 0 0 0 0 0 0 0 0 127 0" result="hardAlpha"/><feOffset/><feGaussianBlur stdDeviation="1"/><feColorMatrix values="0 0 0 0 0.682353 0 0 0 0 0.811765 0 0 0 0 1 0 0 0 0.5 0"/><feBlend in2="BackgroundImageFix" result="effect1_dropShadow_1559_31234"/><feBlend in="SourceGraphic" in2="effect1_dropShadow_1559_31234" result="shape"/></filter><filter id="gv31o4yxbW" x="88" y="71" width="7" height="7" filterUnits="userSpaceOnUse" color-interpolation-filters="sRGB"><feFlood flood-opacity="0" result="BackgroundImageFix"/><feColorMatrix in="SourceAlpha" values="0 0 0 0 0 0 0 0 0 0 0 0 0 0 0 0 0 0 127 0" result="hardAlpha"/><feOffset/><feGaussianBlur stdDeviation="1"/><feColorMatrix values="0 0 0 0 0.682353 0 0 0 0 0.811765 0 0 0 0 1 0 0 0 0.5 0"/><feBlend in2="BackgroundImageFix" result="effect1_dropShadow_1559_31234"/><feBlend in="SourceGraphic" in2="effect1_dropShadow_1559_31234" result="shape"/></filter><filter id="e3ciwgt4zX" x="48" y="71" width="7" height="7" filterUnits="userSpaceOnUse" color-interpolation-filters="sRGB"><feFlood flood-opacity="0" result="BackgroundImageFix"/><feColorMatrix in="SourceAlpha" values="0 0 0 0 0 0 0 0 0 0 0 0 0 0 0 0 0 0 127 0" result="hardAlpha"/><feOffset/><feGaussianBlur stdDeviation="1"/><feColorMatrix values="0 0 0 0 0.682353 0 0 0 0 0.811765 0 0 0 0 1 0 0 0 0.5 0"/><feBlend in2="BackgroundImageFix" result="effect1_dropShadow_1559_31234"/><feBlend in="SourceGraphic" in2="effect1_dropShadow_1559_31234" result="shape"/></filter><filter id="nftql3tscY" x="58" y="71" width="7" height="7" filterUnits="userSpaceOnUse" color-interpolation-filters="sRGB"><feFlood flood-opacity="0" result="BackgroundImageFix"/><feColorMatrix in="SourceAlpha" values="0 0 0 0 0 0 0 0 0 0 0 0 0 0 0 0 0 0 127 0" result="hardAlpha"/><feOffset/><feGaussianBlur stdDeviation="1"/><feColorMatrix values="0 0 0 0 0.682353 0 0 0 0 0.811765 0 0 0 0 1 0 0 0 0.5 0"/><feBlend in2="BackgroundImageFix" result="effect1_dropShadow_1559_31234"/><feBlend in="SourceGraphic" in2="effect1_dropShadow_1559_31234" result="shape"/></filter><filter id="rwte67pdrZ" x="28" y="88" width="7" height="7" filterUnits="userSpaceOnUse" color-interpolation-filters="sRGB"><feFlood flood-opacity="0" result="BackgroundImageFix"/><feColorMatrix in="SourceAlpha" values="0 0 0 0 0 0 0 0 0 0 0 0 0 0 0 0 0 0 127 0" result="hardAlpha"/><feOffset/><feGaussianBlur stdDeviation="1"/><feColorMatrix values="0 0 0 0 0.682353 0 0 0 0 0.811765 0 0 0 0 1 0 0 0 0.5 0"/><feBlend in2="BackgroundImageFix" result="effect1_dropShadow_1559_31234"/><feBlend in="SourceGraphic" in2="effect1_dropShadow_1559_31234" result="shape"/></filter><filter id="q208hb4nbaa" x="73" y="88" width="7" height="7" filterUnits="userSpaceOnUse" color-interpolation-filters="sRGB"><feFlood flood-opacity="0" result="BackgroundImageFix"/><feColorMatrix in="SourceAlpha" values="0 0 0 0 0 0 0 0 0 0 0 0 0 0 0 0 0 0 127 0" result="hardAlpha"/><feOffset/><feGaussianBlur stdDeviation="1"/><feColorMatrix values="0 0 0 0 0.682353 0 0 0 0 0.811765 0 0 0 0 1 0 0 0 0.5 0"/><feBlend in2="BackgroundImageFix" result="effect1_dropShadow_1559_31234"/><feBlend in="SourceGraphic" in2="effect1_dropShadow_1559_31234" result="shape"/></filter><filter id="nu24m7dbxab" x="33" y="88" width="7" height="7" filterUnits="userSpaceOnUse" color-interpolation-filters="sRGB"><feFlood flood-opacity="0" result="BackgroundImageFix"/><feColorMatrix in="SourceAlpha" values="0 0 0 0 0 0 0 0 0 0 0 0 0 0 0 0 0 0 127 0" result="hardAlpha"/><feOffset/><feGaussianBlur stdDeviation="1"/><feColorMatrix values="0 0 0 0 0.682353 0 0 0 0 0.811765 0 0 0 0 1 0 0 0 0.5 0"/><feBlend in2="BackgroundImageFix" result="effect1_dropShadow_1559_31234"/><feBlend in="SourceGraphic" in2="effect1_dropShadow_1559_31234" result="shape"/></filter><filter id="n2fg037y6ac" x="53" y="88" width="7" height="7" filterUnits="userSpaceOnUse" color-interpolation-filters="sRGB"><feFlood flood-opacity="0" result="BackgroundImageFix"/><feColorMatrix in="SourceAlpha" values="0 0 0 0 0 0 0 0 0 0 0 0 0 0 0 0 0 0 127 0" result="hardAlpha"/><feOffset/><feGaussianBlur stdDeviation="1"/><feColorMatrix values="0 0 0 0 0.682353 0 0 0 0 0.811765 0 0 0 0 1 0 0 0 0.5 0"/><feBlend in2="BackgroundImageFix" result="effect1_dropShadow_1559_31234"/><feBlend in="SourceGraphic" in2="effect1_dropShadow_1559_31234" result="shape"/></filter><filter id="asz7fj3iead" x="63" y="88" width="7" height="7" filterUnits="userSpaceOnUse" color-interpolation-filters="sRGB"><feFlood flood-opacity="0" result="BackgroundImageFix"/><feColorMatrix in="SourceAlpha" values="0 0 0 0 0 0 0 0 0 0 0 0 0 0 0 0 0 0 127 0" result="hardAlpha"/><feOffset/><feGaussianBlur stdDeviation="1"/><feColorMatrix values="0 0 0 0 0.682353 0 0 0 0 0.811765 0 0 0 0 1 0 0 0 0.5 0"/><feBlend in2="BackgroundImageFix" result="effect1_dropShadow_1559_31234"/><feBlend in="SourceGraphic" in2="effect1_dropShadow_1559_31234" result="shape"/></filter><filter id="wpfo39mvsae" x="83" y="88" width="7" height="7" filterUnits="userSpaceOnUse" color-interpolation-filters="sRGB"><feFlood flood-opacity="0" result="BackgroundImageFix"/><feColorMatrix in="SourceAlpha" values="0 0 0 0 0 0 0 0 0 0 0 0 0 0 0 0 0 0 127 0" result="hardAlpha"/><feOffset/><feGaussianBlur stdDeviation="1"/><feColorMatrix values="0 0 0 0 0.682353 0 0 0 0 0.811765 0 0 0 0 1 0 0 0 0.5 0"/><feBlend in2="BackgroundImageFix" result="effect1_dropShadow_1559_31234"/><feBlend in="SourceGraphic" in2="effect1_dropShadow_1559_31234" result="shape"/></filter><filter id="j4u9byrzraf" x="88" y="88" width="7" height="7" filterUnits="userSpaceOnUse" color-interpolation-filters="sRGB"><feFlood flood-opacity="0" result="BackgroundImageFix"/><feColorMatrix in="SourceAlpha" values="0 0 0 0 0 0 0 0 0 0 0 0 0 0 0 0 0 0 127 0" result="hardAlpha"/><feOffset/><feGaussianBlur stdDeviation="1"/><feColorMatrix values="0 0 0 0 0.682353 0 0 0 0 0.811765 0 0 0 0 1 0 0 0 0.5 0"/><feBlend in2="BackgroundImageFix" result="effect1_dropShadow_1559_31234"/><feBlend in="SourceGraphic" in2="effect1_dropShadow_1559_31234" result="shape"/></filter><filter id="9ak29bjkpag" x="48" y="88" width="7" height="7" filterUnits="userSpaceOnUse" color-interpolation-filters="sRGB"><feFlood flood-opacity="0" result="BackgroundImageFix"/><feColorMatrix in="SourceAlpha" values="0 0 0 0 0 0 0 0 0 0 0 0 0 0 0 0 0 0 127 0" result="hardAlpha"/><feOffset/><feGaussianBlur stdDeviation="1"/><feColorMatrix values="0 0 0 0 0.682353 0 0 0 0 0.811765 0 0 0 0 1 0 0 0 0.5 0"/><feBlend in2="BackgroundImageFix" result="effect1_dropShadow_1559_31234"/><feBlend in="SourceGraphic" in2="effect1_dropShadow_1559_31234" result="shape"/></filter><filter id="dppbmamk5an" x="11" y="97.482" width="3.723" height="3.723" filterUnits="userSpaceOnUse" color-interpolation-filters="sRGB"><feFlood flood-opacity="0" result="BackgroundImageFix"/><feColorMatrix in="SourceAlpha" values="0 0 0 0 0 0 0 0 0 0 0 0 0 0 0 0 0 0 127 0" result="hardAlpha"/><feOffset/><feGaussianBlur stdDeviation=".62"/><feColorMatrix values="0 0 0 0 0.819608 0 0 0 0 0.847059 0 0 0 0 0.894118 0 0 0 1 0"/><feBlend in2="BackgroundImageFix" result="effect1_dropShadow_1559_31234"/><feBlend in="SourceGraphic" in2="effect1_dropShadow_1559_31234" result="shape"/></filter><filter id="18i2ziis1ap" x="11" y="76.963" width="3.723" height="3.723" filterUnits="userSpaceOnUse" color-interpolation-filters="sRGB"><feFlood flood-opacity="0" result="BackgroundImageFix"/><feColorMatrix in="SourceAlpha" values="0 0 0 0 0 0 0 0 0 0 0 0 0 0 0 0 0 0 127 0" result="hardAlpha"/><feOffset/><feGaussianBlur stdDeviation=".62"/><feColorMatrix values="0 0 0 0 0.819608 0 0 0 0 0.847059 0 0 0 0 0.894118 0 0 0 1 0"/><feBlend in2="BackgroundImageFix" result="effect1_dropShadow_1559_31234"/><feBlend in="SourceGraphic" in2="effect1_dropShadow_1559_31234" result="shape"/></filter><linearGradient id="x6t80650db" x1="28.5" y1="2.5" x2="97.5" y2="123" gradientUnits="userSpaceOnUse"><stop stop-color="#9BB0DE"/><stop offset="1" stop-color="#435B83"/></linearGradient><linearGradient id="3uok9pgrtc" x1="18" y1="32.5" x2="3.139" y2="108.281" gradientUnits="userSpaceOnUse"><stop stop-color="#3B6099"/><stop offset="1" stop-color="#101A2A"/></linearGradient><linearGradient id="x5468f5j4d" x1="20.823" y1="32.5" x2="-1.021" y2="104.575" gradientUnits="userSpaceOnUse"><stop stop-color="#1A2942"/><stop offset="1" stop-color="#101A2A"/></linearGradient><linearGradient id="0g01iaum2g" x1="19.8" y1="11.062" x2="22.479" y2="57.356" gradientUnits="userSpaceOnUse"><stop stop-color="#3B6099"/><stop offset="1" stop-color="#101A2A"/></linearGradient><linearGradient id="uc8pqyl7pi" x1="7" y1="18.4" x2="31.701" y2="22.455" gradientUnits="userSpaceOnUse"><stop stop-color="#748BB1"/><stop offset="1" stop-color="#2F4B78" stop-opacity="0"/></linearGradient><linearGradient id="fvvkiyur6p" x1="59" y1="39" x2="62" y2="62.5" gradientUnits="userSpaceOnUse"><stop stop-color="#AECFFF"/><stop offset="1" stop-color="#AECFFF" stop-opacity="0"/></linearGradient><linearGradient id="unhs7xa1xq" x1="95.8" y1="11.062" x2="98.479" y2="57.356" gradientUnits="userSpaceOnUse"><stop stop-color="#3B6099"/><stop offset="1" stop-color="#101A2A"/></linearGradient><linearGradient id="eemwyg520s" x1="83" y1="18.4" x2="107.701" y2="22.455" gradientUnits="userSpaceOnUse"><stop stop-color="#748BB1"/><stop offset="1" stop-color="#2F4B78" stop-opacity="0"/></linearGradient><linearGradient id="dg8evkqtaA" x1="57.8" y1="11.062" x2="60.479" y2="57.356" gradientUnits="userSpaceOnUse"><stop stop-color="#3B6099"/><stop offset="1" stop-color="#101A2A"/></linearGradient><linearGradient id="3t2rggp3hC" x1="49" y1="20.6" x2="70.822" y2="22.485" gradientUnits="userSpaceOnUse"><stop stop-color="#748BB1"/><stop offset="1" stop-color="#2F4B78" stop-opacity="0"/></linearGradient><linearGradient id="c6berqt2nM" x1="55" y1="47.5" x2="51.751" y2="119.353" gradientUnits="userSpaceOnUse"><stop stop-color="#3B6099"/><stop offset="1" stop-color="#101A2A"/></linearGradient><linearGradient id="w93yh88q0P" x1="111" y1="76" x2="95.107" y2="82.939" gradientUnits="userSpaceOnUse"><stop stop-color="#D3D9E5"/><stop offset="1" stop-color="#D3D9E5" stop-opacity="0"/></linearGradient><linearGradient id="8wjzcti3zah" x1="31.5" y1="86" x2="23.012" y2="83.337" gradientUnits="userSpaceOnUse"><stop stop-color="#AECFFF"/><stop offset="1" stop-color="#AECFFF" stop-opacity="0"/></linearGradient><linearGradient id="a28kqmtddai" x1="66.5" y1="86" x2="53.12" y2="77.605" gradientUnits="userSpaceOnUse"><stop stop-color="#AECFFF"/><stop offset="1" stop-color="#AECFFF" stop-opacity="0"/></linearGradient><linearGradient id="cheujl24taj" x1="51.5" y1="86" x2="38.12" y2="77.605" gradientUnits="userSpaceOnUse"><stop stop-color="#AECFFF"/><stop offset="1" stop-color="#AECFFF" stop-opacity="0"/></linearGradient><linearGradient id="rvq151lt0ak" x1="81" y1="77.5" x2="35" y2="85.5" gradientUnits="userSpaceOnUse"><stop stop-color="#AECFFF"/><stop offset="1" stop-color="#AECFFF" stop-opacity="0"/></linearGradient><linearGradient id="rb87vv6bbal" x1="91.5" y1="86" x2="78.028" y2="64.869" gradientUnits="userSpaceOnUse"><stop stop-color="#AECFFF"/><stop offset="1" stop-color="#AECFFF" stop-opacity="0"/></linearGradient><linearGradient id="enmjbwe3tam" x1="20" y1="73.8" x2="41.887" y2="47.72" gradientUnits="userSpaceOnUse"><stop stop-color="#748BB1"/><stop offset="1" stop-color="#2F4B78" stop-opacity="0"/></linearGradient><linearGradient id="s0dtjm139ao" x1="11.746" y1="99.343" x2="11.746" y2="101.574" gradientUnits="userSpaceOnUse"><stop stop-color="#fff"/><stop offset="1" stop-color="#2D394B"/></linearGradient><linearGradient id="c60m6jpteaq" x1="11.746" y1="78.825" x2="11.746" y2="81.056" gradientUnits="userSpaceOnUse"><stop stop-color="#fff"/><stop offset="1" stop-color="#2D394B"/></linearGradient><radialGradient id="79o9b4424a" cx="0" cy="0" r="1" gradientUnits="userSpaceOnUse" gradientTransform="matrix(0 120 -120 0 60 0)"><stop stop-color="#263A5E"/><stop offset="1" stop-color="#0C1321"/></radialGradient><radialGradient id="0ysquw8the" cx="0" cy="0" r="1" gradientUnits="userSpaceOnUse" gradientTransform="matrix(0 4 -17 0 22 48)"><stop/><stop offset="1" stop-opacity="0"/></radialGradient><radialGradient id="m60arcd1sf" cx="0" cy="0" r="1" gradientUnits="userSpaceOnUse" gradientTransform="matrix(0 4 -17 0 98 48)"><stop/><stop offset="1" stop-opacity="0"/></radialGradient><radialGradient id="563lrub8jh" cx="0" cy="0" r="1" gradientUnits="userSpaceOnUse" gradientTransform="matrix(-.99974 41.49996 -91.6936 -2.20892 32 5.501)"><stop stop-color="#D5DBE7"/><stop offset="1" stop-color="#233A64" stop-opacity="0"/></radialGradient><radialGradient id="zuwumrbt6r" cx="0" cy="0" r="1" gradientUnits="userSpaceOnUse" gradientTransform="matrix(-.99974 41.49996 -91.6936 -2.20892 107.999 5.5)"><stop stop-color="#D5DBE7"/><stop offset="1" stop-color="#233A64" stop-opacity="0"/></radialGradient><radialGradient id="9a32nsyrnz" cx="0" cy="0" r="1" gradientUnits="userSpaceOnUse" gradientTransform="matrix(0 4 -17 0 60 48)"><stop/><stop offset="1" stop-opacity="0"/></radialGradient><radialGradient id="7jscppb98B" cx="0" cy="0" r="1" gradientUnits="userSpaceOnUse" gradientTransform="rotate(104.216 29.801 38.045) scale(38.6846 85.4731)"><stop stop-color="#D5DBE7"/><stop offset="1" stop-color="#233A64" stop-opacity="0"/></radialGradient><radialGradient id="5hmhc50ttL" cx="0" cy="0" r="1" gradientUnits="userSpaceOnUse" gradientTransform="matrix(0 4 -41 0 60 113)"><stop/><stop offset="1" stop-opacity="0"/></radialGradient><radialGradient id="8wm5batsuN" cx="0" cy="0" r="1" gradientUnits="userSpaceOnUse" gradientTransform="matrix(17.79411 65.5 -173.17537 47.04584 65.5 47.5)"><stop stop-color="#D5DBE7"/><stop offset="1" stop-color="#233A64" stop-opacity="0"/></radialGradient><radialGradient id="lv8cwpxduO" cx="0" cy="0" r="1" gradientUnits="userSpaceOnUse" gradientTransform="translate(74.499 28.503) scale(6.21863)"><stop stop-color="#fff"/><stop offset="1" stop-color="#757575" stop-opacity="0"/></radialGradient><radialGradient id="to0rgt100ar" cx="0" cy="0" r="1" gradientUnits="userSpaceOnUse" gradientTransform="matrix(0 6.5 -11.6107 0 31.938 61.59)"><stop stop-color="#D5DBE7"/><stop offset="1" stop-color="#233A64" stop-opacity="0"/></radialGradient></defs></svg>