<svg width="120" height="120" fill="none" xmlns="http://www.w3.org/2000/svg"><circle cx="60" cy="60" r="60" fill="url(#vepa1cgqea)"/><mask id="a" style="mask-type:alpha" maskUnits="userSpaceOnUse" x="0" y="0" width="120" height="120"><circle cx="60" cy="60" r="60" fill="url(#fw4kl0qmub)"/></mask><g mask="url(#a)"><path transform="rotate(180 19 76)" fill="url(#omp0x7du8d)" d="M19 76h21v33H19z"/><path fill="url(#ogwztiv80e)" d="M102 43h19v33h-19z"/><path fill="url(#ttnrrl5jpf)" d="M99 45h21v29H99z"/><path fill="#142135" d="M96 67.867h5.6v-1.442H96zm7.467 0h5.6v-1.442h-5.6zm7.466 0h1.867v-1.442h-1.867zm2.8 0h1.867v-1.442h-1.867zm2.8 0h2.8v-1.442h-2.8z"/><g filter="url(#zi0m7vqzdg)"><path transform="matrix(1 0 0 -1 96 56.327)" fill="url(#6cktbn0x7h)" d="M0 0h13.067v1.442H0z"/></g><path fill="#142135" d="M110.933 56.327h1.867v-1.442h-1.867zm2.8 0h1.867v-1.442h-1.867zm2.8 0h2.8v-1.442h-2.8zM96 59.212h16.8V57.77H96zm17.733 0h5.6V57.77h-5.6zM96 62.097h5.6v-1.442H96z"/><g filter="url(#7husflkzqi)"><path transform="matrix(1 0 0 -1 96 64.982)" fill="url(#s9yoy7bz5j)" d="M0 0h5.6v1.442H0z"/></g><path fill="#142135" d="M103.467 64.982h9.333V63.54h-9.333zm10.266 0h5.6V63.54h-5.6zM96 53.442h5.6V52H96zm17.733 0h5.6V52h-5.6z"/><g filter="url(#ykpxumo9tk)"><path transform="matrix(1 0 0 -1 121.2 53.442)" fill="url(#fgqbnime4l)" d="M0 0h2.8v1.442H0z"/></g><path fill="#142135" d="M103.467 53.442h5.6V52h-5.6z"/><path transform="rotate(180 19 74)" fill="url(#uvc54jg13m)" d="M19 74h21v29H19z"/><path fill="#142135" d="M.467 52h5.6v1.442h-5.6zm7.466 0H9.8v1.442H7.933zm2.8 0H12.6v1.442h-1.867zm2.8 0h2.8v1.442h-2.8zm4.667 0H21v1.442h-2.8zM7.933 63.539H9.8v1.442H7.933zm2.8 0H12.6v1.442h-1.867zm2.8 0h2.8v1.442h-2.8zm4.667 0H21v1.442h-2.8zM-7 60.654H9.8v1.442H-7zm17.733 0h5.6v1.442h-5.6zm7.467 0H21v1.442h-2.8z"/><g filter="url(#uxlcgeynpn)"><path fill="url(#nzsacqdj6o)" d="M-7 54.885h5.6v1.442H-7z"/></g><path fill="#142135" d="M.467 54.885H9.8v1.442H.467zm10.266 0h5.6v1.442h-5.6zm7.467 0H21v1.442h-2.8zm-7.467 11.539h5.6v1.442h-5.6z"/><g filter="url(#5hryrhk5dp)"><path fill="url(#7uyrrjaa4q)" d="M18.2 66.424H21v1.442h-2.8z"/></g><g filter="url(#1ehm7ytmrr)"><path fill-rule="evenodd" clip-rule="evenodd" d="M110.933 53.442h1.867V52h-1.867v1.442zm-7.466 8.655H124v-1.442h-20.533v1.442zm-97.4 1.442H-7v1.443H6.067v-1.443zm-5.6-5.77H21v1.443H.467V57.77zM9.8 66.425H7.933v1.443H9.8v-1.443z" fill="url(#zm2oeah7ws)"/></g><path fill="#142135" d="M.467 66.424h5.6v1.442h-5.6z"/></g><circle cx="60" cy="60" r="59" stroke="url(#uu0d64yo3t)" stroke-width="2"/><path d="M60 111c28.166 0 51-22.834 51-51S88.166 9 60 9 9 31.834 9 60s22.834 51 51 51z" fill="url(#gpehy7ve3u)"/><path d="M60 111c28.166 0 51-22.834 51-51S88.166 9 60 9 9 31.834 9 60s22.834 51 51 51z" fill="url(#hjrj8csarv)" fill-opacity=".25"/><path d="M60 105c24.853 0 45-20.147 45-45S84.853 15 60 15 15 35.147 15 60s20.147 45 45 45z" fill="url(#7gk5t769uw)"/><path d="M60 105c24.853 0 45-20.147 45-45S84.853 15 60 15 15 35.147 15 60s20.147 45 45 45z" fill="url(#3m1r1wq4ex)"/><path fill-rule="evenodd" clip-rule="evenodd" d="M72.296 38.702a6.007 6.007 0 116.008-10.405 6.007 6.007 0 01-6.008 10.405zM35.407 60a6.008 6.008 0 11-12.015 0 6.008 6.008 0 0112.015 0zM66.97 34.84a8.421 8.421 0 004.112 5.967 8.42 8.42 0 007.216.58 26.019 26.019 0 017.754 16.994h-8.575C76.66 49.447 69.146 42.45 60 42.45c-2.62 0-5.105.574-7.338 1.603l-4.288-7.427A25.992 25.992 0 0160 33.9c2.414 0 4.75.328 6.97.94zM49.86 45.675l-4.287-7.427c-5.284 3.512-9.216 8.898-10.845 15.21A8.421 8.421 0 0137.837 60a8.421 8.421 0 01-3.11 6.544c1.63 6.311 5.56 11.697 10.845 15.209l4.288-7.427c-4.484-3.18-7.41-8.411-7.41-14.326 0-5.915 2.926-11.146 7.41-14.326zm-1.485 37.7l4.288-7.427A17.484 17.484 0 0060 77.55c9.147 0 16.66-6.997 17.476-15.931h8.575a26.018 26.018 0 01-7.754 16.994 8.42 8.42 0 00-7.216.58 8.421 8.421 0 00-4.112 5.966A26.127 26.127 0 0160 86.1c-4.177 0-8.125-.981-11.626-2.726zm23.922-2.076a6.008 6.008 0 116.008 10.405 6.008 6.008 0 01-6.008-10.405z" fill="#0F1929"/><g filter="url(#ndr739wxfy)"><path d="M74 33.5a1.5 1.5 0 103 0 1.5 1.5 0 00-3 0z" fill="url(#01wkc0eunz)"/></g><g filter="url(#32olxh7l2A)"><path d="M28 60a1.5 1.5 0 103 0 1.5 1.5 0 00-3 0z" fill="url(#ljinb16bwB)"/></g><circle cx="60" cy="60" r="16" fill="#0F1828"/><mask id="b" style="mask-type:alpha" maskUnits="userSpaceOnUse" x="47" y="47" width="26" height="26"><circle cx="60" cy="60" r="13" fill="#101829"/></mask><g mask="url(#b)"><path fill="#2B3B5A" d="M46 56h5.6v1.442H46zm7.467 0h5.6v1.442h-5.6zm7.466 0H62.8v1.442h-1.867zm2.8 0H65.6v1.442h-1.867zm2.8 0h2.8v1.442h-2.8zm4.667 0H74v1.442h-2.8zM60.933 67.539H62.8v1.442h-1.867zm2.8 0H65.6v1.442h-1.867zm2.8 0h2.8v1.442h-2.8zm4.667 0H74v1.442h-2.8zM46 64.654h16.8v1.442H46zm17.733 0h5.6v1.442h-5.6zm7.467 0H74v1.442h-2.8zM46 61.77h5.6v1.442H46zm7.467-2.885H62.8v1.442h-9.333zm10.266 0h5.6v1.442h-5.6zm7.467 0H74v1.442h-2.8zM46 70.424h5.6v1.442H46zm17.733 0h5.6v1.442h-5.6z"/><g filter="url(#i49038ghrD)"><path fill="url(#gj214fjy5E)" d="M71.2 70.424H74v1.442h-2.8z"/></g><path fill="#2B3B5A" d="M53.467 70.424h5.6v1.442h-5.6zm5.6-19.884H57.2v1.441h1.867zm-2.8 0H54.4v1.441h1.867zm-2.8 0h-2.8v1.441h2.8zm-4.667 0H46v1.441h2.8zM74 47.654H57.2v1.442H74zm-17.733 0h-5.6v1.442h5.6zm-7.467 0H46v1.442h2.8zm25.2 5.77h-5.6v1.442H74zm-17.733 0h-5.6v1.442h5.6z"/><g filter="url(#g988y8x2qF)"><path fill-rule="evenodd" clip-rule="evenodd" d="M60.933 50.54H74v1.442H60.933v-1.443zM51.6 58.884H46v1.442h5.6v-1.442zm1.867 2.885H74v1.442H53.467V61.77zM46 67.54h13.067v1.442H46v-1.443zm14.933 2.884H62.8v1.443h-1.867v-1.443zm-12.133-17H46v1.443h2.8v-1.443zm8.4 0h1.867v1.443H57.2v-1.443z" fill="url(#79x1p0kg6G)"/></g><path fill="#2B3B5A" d="M66.533 53.424h-5.6v1.442h5.6z"/></g><path opacity=".25" fill-rule="evenodd" clip-rule="evenodd" d="M60 76c8.837 0 16-7.163 16-16s-7.163-16-16-16v32z" fill="url(#6a64vud8wH)"/><circle opacity=".8" cx="75" cy="86" transform="rotate(90 75 86)" fill="url(#nakfpcftjI)" r="8"/><path d="M31.014 104l-5-28L76 86.5" stroke="url(#fb7pwler6J)" stroke-width="2.001" stroke-linejoin="round"/><path d="M31.014 105l6-7" stroke="url(#g4gxfpwh5K)" stroke-width="2.001" stroke-linejoin="round"/><ellipse cx="3.006" cy="3.01" rx="3.006" ry="3.01" transform="rotate(90 -21.99 51.01)" fill="#fff"/><circle cx="31.014" cy="105" transform="rotate(90 31.014 105)" fill="#fff" r="2"/><circle cx="75.3" cy="86.5" transform="rotate(90 75.3 86.5)" fill="#fff" r="2.5"/><defs><linearGradient id="omp0x7du8d" x1="36.5" y1="93.471" x2="15.538" y2="94.365" gradientUnits="userSpaceOnUse"><stop stop-color="#385076"/><stop offset="1" stop-color="#131E32"/></linearGradient><linearGradient id="ogwztiv80e" x1="121" y1="60.471" x2="98.866" y2="61.325" gradientUnits="userSpaceOnUse"><stop stop-color="#385076"/><stop offset="1" stop-color="#131E32"/></linearGradient><linearGradient id="ttnrrl5jpf" x1="123" y1="60.5" x2="105.042" y2="61.372" gradientUnits="userSpaceOnUse"><stop stop-color="#385076"/><stop offset="1" stop-color="#131E32"/></linearGradient><linearGradient id="6cktbn0x7h" x1="-5.213" y1=".721" x2="-5.213" y2="3.315" gradientUnits="userSpaceOnUse"><stop stop-color="#fff"/><stop offset="1" stop-color="#C42E6C"/></linearGradient><linearGradient id="s9yoy7bz5j" x1="-2.234" y1=".721" x2="-2.234" y2="3.315" gradientUnits="userSpaceOnUse"><stop stop-color="#fff"/><stop offset="1" stop-color="#C42E6C"/></linearGradient><linearGradient id="fgqbnime4l" x1="-1.117" y1=".721" x2="-1.117" y2="3.315" gradientUnits="userSpaceOnUse"><stop stop-color="#fff"/><stop offset="1" stop-color="#C42E6C"/></linearGradient><linearGradient id="uvc54jg13m" x1="40" y1="89.353" x2="15.558" y2="90.54" gradientUnits="userSpaceOnUse"><stop stop-color="#385076"/><stop offset="1" stop-color="#131E32"/></linearGradient><linearGradient id="nzsacqdj6o" x1="-9.234" y1="55.606" x2="-9.234" y2="58.199" gradientUnits="userSpaceOnUse"><stop stop-color="#fff"/><stop offset="1" stop-color="#C42E6C"/></linearGradient><linearGradient id="7uyrrjaa4q" x1="17.083" y1="67.145" x2="17.083" y2="69.739" gradientUnits="userSpaceOnUse"><stop stop-color="#fff"/><stop offset="1" stop-color="#C42E6C"/></linearGradient><linearGradient id="zm2oeah7ws" x1="-59.264" y1="59.933" x2="-59.264" y2="88.46" gradientUnits="userSpaceOnUse"><stop stop-color="#fff"/><stop offset="1" stop-color="#2D394B"/></linearGradient><linearGradient id="uu0d64yo3t" x1="28.5" y1="2.5" x2="97.5" y2="123" gradientUnits="userSpaceOnUse"><stop stop-color="#9BB0DE"/><stop offset="1" stop-color="#435B83"/></linearGradient><linearGradient id="01wkc0eunz" x1="75.5" y1="30.803" x2="70.106" y2="30.803" gradientUnits="userSpaceOnUse"><stop stop-color="#fff"/><stop offset="1" stop-color="#2D394B"/></linearGradient><linearGradient id="ljinb16bwB" x1="29.5" y1="57.303" x2="24.106" y2="57.303" gradientUnits="userSpaceOnUse"><stop stop-color="#fff"/><stop offset="1" stop-color="#2D394B"/></linearGradient><linearGradient id="gj214fjy5E" x1="70.083" y1="71.145" x2="70.083" y2="73.739" gradientUnits="userSpaceOnUse"><stop stop-color="#fff"/><stop offset="1" stop-color="#C42E6C"/></linearGradient><linearGradient id="79x1p0kg6G" x1="85.171" y1="61.203" x2="85.171" y2="99.548" gradientUnits="userSpaceOnUse"><stop stop-color="#fff"/><stop offset="1" stop-color="#2D394B"/></linearGradient><linearGradient id="6a64vud8wH" x1="76" y1="69.6" x2="58.298" y2="77.152" gradientUnits="userSpaceOnUse"><stop stop-color="#748BB1"/><stop offset="1" stop-color="#2F4B78" stop-opacity="0"/></linearGradient><linearGradient id="fb7pwler6J" x1="72.343" y1="77.028" x2="79.798" y2="83.546" gradientUnits="userSpaceOnUse"><stop stop-color="#D3D9E5"/><stop offset="1" stop-color="#D3D9E5" stop-opacity="0"/></linearGradient><linearGradient id="g4gxfpwh5K" x1="32" y1="104.5" x2="36.974" y2="98.922" gradientUnits="userSpaceOnUse"><stop stop-color="#D3D9E5"/><stop offset="1" stop-color="#D3D9E5" stop-opacity="0"/></linearGradient><filter id="zi0m7vqzdg" x="94.133" y="53.018" width="16.8" height="5.176" filterUnits="userSpaceOnUse" color-interpolation-filters="sRGB"><feFlood flood-opacity="0" result="BackgroundImageFix"/><feColorMatrix in="SourceAlpha" values="0 0 0 0 0 0 0 0 0 0 0 0 0 0 0 0 0 0 127 0" result="hardAlpha"/><feOffset/><feGaussianBlur stdDeviation=".933"/><feColorMatrix values="0 0 0 0 0.951002 0 0 0 0 0.370525 0 0 0 0 0.610455 0 0 0 1 0"/><feBlend in2="BackgroundImageFix" result="effect1_dropShadow_1281_37086"/><feBlend in="SourceGraphic" in2="effect1_dropShadow_1281_37086" result="shape"/></filter><filter id="7husflkzqi" x="94.133" y="61.673" width="9.333" height="5.176" filterUnits="userSpaceOnUse" color-interpolation-filters="sRGB"><feFlood flood-opacity="0" result="BackgroundImageFix"/><feColorMatrix in="SourceAlpha" values="0 0 0 0 0 0 0 0 0 0 0 0 0 0 0 0 0 0 127 0" result="hardAlpha"/><feOffset/><feGaussianBlur stdDeviation=".933"/><feColorMatrix values="0 0 0 0 0.951002 0 0 0 0 0.370525 0 0 0 0 0.610455 0 0 0 1 0"/><feBlend in2="BackgroundImageFix" result="effect1_dropShadow_1281_37086"/><feBlend in="SourceGraphic" in2="effect1_dropShadow_1281_37086" result="shape"/></filter><filter id="ykpxumo9tk" x="119.333" y="50.133" width="6.533" height="5.176" filterUnits="userSpaceOnUse" color-interpolation-filters="sRGB"><feFlood flood-opacity="0" result="BackgroundImageFix"/><feColorMatrix in="SourceAlpha" values="0 0 0 0 0 0 0 0 0 0 0 0 0 0 0 0 0 0 127 0" result="hardAlpha"/><feOffset/><feGaussianBlur stdDeviation=".933"/><feColorMatrix values="0 0 0 0 0.951002 0 0 0 0 0.370525 0 0 0 0 0.610455 0 0 0 1 0"/><feBlend in2="BackgroundImageFix" result="effect1_dropShadow_1281_37086"/><feBlend in="SourceGraphic" in2="effect1_dropShadow_1281_37086" result="shape"/></filter><filter id="uxlcgeynpn" x="-8.867" y="53.018" width="9.333" height="5.176" filterUnits="userSpaceOnUse" color-interpolation-filters="sRGB"><feFlood flood-opacity="0" result="BackgroundImageFix"/><feColorMatrix in="SourceAlpha" values="0 0 0 0 0 0 0 0 0 0 0 0 0 0 0 0 0 0 127 0" result="hardAlpha"/><feOffset/><feGaussianBlur stdDeviation=".933"/><feColorMatrix values="0 0 0 0 0.951002 0 0 0 0 0.370525 0 0 0 0 0.610455 0 0 0 1 0"/><feBlend in2="BackgroundImageFix" result="effect1_dropShadow_1281_37086"/><feBlend in="SourceGraphic" in2="effect1_dropShadow_1281_37086" result="shape"/></filter><filter id="5hryrhk5dp" x="16.333" y="64.558" width="6.533" height="5.176" filterUnits="userSpaceOnUse" color-interpolation-filters="sRGB"><feFlood flood-opacity="0" result="BackgroundImageFix"/><feColorMatrix in="SourceAlpha" values="0 0 0 0 0 0 0 0 0 0 0 0 0 0 0 0 0 0 127 0" result="hardAlpha"/><feOffset/><feGaussianBlur stdDeviation=".933"/><feColorMatrix values="0 0 0 0 0.951002 0 0 0 0 0.370525 0 0 0 0 0.610455 0 0 0 1 0"/><feBlend in2="BackgroundImageFix" result="effect1_dropShadow_1281_37086"/><feBlend in="SourceGraphic" in2="effect1_dropShadow_1281_37086" result="shape"/></filter><filter id="1ehm7ytmrr" x="-9" y="50" width="135" height="19.867" filterUnits="userSpaceOnUse" color-interpolation-filters="sRGB"><feFlood flood-opacity="0" result="BackgroundImageFix"/><feColorMatrix in="SourceAlpha" values="0 0 0 0 0 0 0 0 0 0 0 0 0 0 0 0 0 0 127 0" result="hardAlpha"/><feOffset/><feGaussianBlur stdDeviation="1"/><feColorMatrix values="0 0 0 0 0.819608 0 0 0 0 0.847059 0 0 0 0 0.894118 0 0 0 1 0"/><feBlend in2="BackgroundImageFix" result="effect1_dropShadow_1281_37086"/><feBlend in="SourceGraphic" in2="effect1_dropShadow_1281_37086" result="shape"/></filter><filter id="ndr739wxfy" x="69" y="27" width="13" height="13" filterUnits="userSpaceOnUse" color-interpolation-filters="sRGB"><feFlood flood-opacity="0" result="BackgroundImageFix"/><feColorMatrix in="SourceAlpha" values="0 0 0 0 0 0 0 0 0 0 0 0 0 0 0 0 0 0 127 0" result="hardAlpha"/><feOffset/><feGaussianBlur stdDeviation="2.5"/><feColorMatrix values="0 0 0 0 0.819608 0 0 0 0 0.847059 0 0 0 0 0.894118 0 0 0 1 0"/><feBlend in2="BackgroundImageFix" result="effect1_dropShadow_1281_37086"/><feBlend in="SourceGraphic" in2="effect1_dropShadow_1281_37086" result="shape"/></filter><filter id="32olxh7l2A" x="23" y="53.5" width="13" height="13" filterUnits="userSpaceOnUse" color-interpolation-filters="sRGB"><feFlood flood-opacity="0" result="BackgroundImageFix"/><feColorMatrix in="SourceAlpha" values="0 0 0 0 0 0 0 0 0 0 0 0 0 0 0 0 0 0 127 0" result="hardAlpha"/><feOffset/><feGaussianBlur stdDeviation="2.5"/><feColorMatrix values="0 0 0 0 0.819608 0 0 0 0 0.847059 0 0 0 0 0.894118 0 0 0 1 0"/><feBlend in2="BackgroundImageFix" result="effect1_dropShadow_1281_37086"/><feBlend in="SourceGraphic" in2="effect1_dropShadow_1281_37086" result="shape"/></filter><filter id="i49038ghrD" x="69.333" y="68.558" width="6.533" height="5.176" filterUnits="userSpaceOnUse" color-interpolation-filters="sRGB"><feFlood flood-opacity="0" result="BackgroundImageFix"/><feColorMatrix in="SourceAlpha" values="0 0 0 0 0 0 0 0 0 0 0 0 0 0 0 0 0 0 127 0" result="hardAlpha"/><feOffset/><feGaussianBlur stdDeviation=".933"/><feColorMatrix values="0 0 0 0 0.951002 0 0 0 0 0.370525 0 0 0 0 0.610455 0 0 0 1 0"/><feBlend in2="BackgroundImageFix" result="effect1_dropShadow_1281_37086"/><feBlend in="SourceGraphic" in2="effect1_dropShadow_1281_37086" result="shape"/></filter><filter id="g988y8x2qF" x="44" y="48.539" width="32" height="25.327" filterUnits="userSpaceOnUse" color-interpolation-filters="sRGB"><feFlood flood-opacity="0" result="BackgroundImageFix"/><feColorMatrix in="SourceAlpha" values="0 0 0 0 0 0 0 0 0 0 0 0 0 0 0 0 0 0 127 0" result="hardAlpha"/><feOffset/><feGaussianBlur stdDeviation="1"/><feColorMatrix values="0 0 0 0 0.819608 0 0 0 0 0.847059 0 0 0 0 0.894118 0 0 0 1 0"/><feBlend in2="BackgroundImageFix" result="effect1_dropShadow_1281_37086"/><feBlend in="SourceGraphic" in2="effect1_dropShadow_1281_37086" result="shape"/></filter><radialGradient id="vepa1cgqea" cx="0" cy="0" r="1" gradientUnits="userSpaceOnUse" gradientTransform="matrix(0 120 -120 0 60 0)"><stop stop-color="#263A5E"/><stop offset="1" stop-color="#0C1321"/></radialGradient><radialGradient id="fw4kl0qmub" cx="0" cy="0" r="1" gradientUnits="userSpaceOnUse" gradientTransform="matrix(0 120 -120 0 60 0)"><stop stop-color="#263A5E"/><stop offset="1" stop-color="#0C1321"/></radialGradient><radialGradient id="gpehy7ve3u" cx="0" cy="0" r="1" gradientUnits="userSpaceOnUse" gradientTransform="rotate(63.558 3.547 31.866) scale(104.425)"><stop stop-color="#6C84AB"/><stop offset="1" stop-color="#132039"/></radialGradient><radialGradient id="hjrj8csarv" cx="0" cy="0" r="1" gradientUnits="userSpaceOnUse" gradientTransform="rotate(-130.393 78.58 36.196) scale(164.873 215.223)"><stop stop-color="#D5DBE7" stop-opacity=".6"/><stop offset="1" stop-color="#233A64" stop-opacity="0"/></radialGradient><radialGradient id="7gk5t769uw" cx="0" cy="0" r="1" gradientUnits="userSpaceOnUse" gradientTransform="rotate(85.658 13.045 33.935) scale(94.0311)"><stop stop-color="#86A1CD"/><stop offset="1" stop-color="#132039"/></radialGradient><radialGradient id="3m1r1wq4ex" cx="0" cy="0" r="1" gradientUnits="userSpaceOnUse" gradientTransform="matrix(30.99995 74 -92.7835 38.8687 36 20.5)"><stop stop-color="#94ABD3"/><stop offset="1" stop-color="#425575"/></radialGradient><radialGradient id="nakfpcftjI" cx="0" cy="0" r="1" gradientUnits="userSpaceOnUse" gradientTransform="translate(75 86.003) scale(5.85283)"><stop stop-color="#fff"/><stop offset="1" stop-color="#757575" stop-opacity="0"/></radialGradient></defs></svg>